M48
; DRILL file {KiCad (5.1.5)-3} date 16/03/2020 17:52:31
; FORMAT={-:-/ absolute / metric / decimal}
; #@! TF.CreationDate,2020-03-16T17:52:31+03:00
; #@! TF.GenerationSoftware,Kicad,Pcbnew,(5.1.5)-3
FMAT,2
METRIC
T1C0.300
T2C0.400
T3C0.762
T4C0.800
T5C0.900
T6C1.000
%
G90
G05
T1
X103.05Y-110.65
X104.3Y-103.05
X112.3Y-102.525
X112.45Y-126.3
X113.675Y-105.05
X113.825Y-111.0
X114.8Y-96.075
X114.9Y-98.525
X114.99Y-101.975
X115.25Y-73.5
X115.625Y-99.25
X116.4Y-109.1
X116.425Y-120.125
X116.45Y-118.8
X116.675Y-124.1
X116.8Y-138.0
X117.325Y-130.425
X117.55Y-109.575
X117.6Y-138.3
X117.725Y-117.95
X117.81Y-94.72
X117.9Y-86.4
X117.925Y-89.02
X118.0Y-103.325
X118.0Y-104.7
X118.0Y-134.0
X118.05Y-101.35
X118.1Y-132.0
X118.15Y-109.025
X118.15Y-123.5
X118.325Y-121.3
X119.0Y-82.25
X119.0Y-127.6
X119.0Y-130.125
X119.0Y-135.45
X119.25Y-133.525
X120.0Y-106.525
X120.1Y-121.475
X120.29Y-92.91
X120.63Y-98.95
X120.65Y-138.35
X121.9Y-53.2
X121.9Y-60.1
X121.9Y-67.0
X121.9Y-73.85
X122.725Y-116.25
X122.725Y-117.75
X122.725Y-119.25
X122.725Y-121.75
X122.725Y-123.25
X122.725Y-124.75
X122.75Y-130.75
X122.75Y-132.25
X122.75Y-133.75
X122.75Y-136.25
X122.75Y-137.75
X122.75Y-139.25
X122.95Y-105.2
X122.95Y-107.25
X122.95Y-108.175
X123.09Y-93.5
X123.1Y-85.42
X123.1Y-87.2
X123.1Y-88.39
X123.1Y-89.65
X123.1Y-90.78
X123.1Y-92.0
X123.25Y-101.1
X123.275Y-103.25
X123.3Y-109.075
X123.32Y-82.16
X123.32Y-84.54
X123.425Y-114.75
X123.475Y-95.925
X123.475Y-97.925
X123.625Y-120.35
X123.775Y-117.25
X124.3Y-134.8
X124.45Y-100.725
X124.55Y-124.425
X125.3Y-60.05
X125.3Y-66.75
X125.325Y-53.225
X125.35Y-73.675
X125.6Y-86.37
X125.6Y-96.92
X126.25Y-100.875
X126.375Y-89.875
X126.375Y-94.82
X127.125Y-100.55
X127.19Y-86.0
X127.19Y-86.94
X127.625Y-118.82
X127.85Y-102.325
X127.85Y-105.225
X127.85Y-107.0
X127.99Y-92.6
X127.99Y-93.5
X128.0Y-88.02
X128.0Y-89.6
X128.0Y-90.5
X128.0Y-91.63
X128.05Y-110.675
X128.075Y-109.65
X128.1Y-82.6
X128.1Y-85.0
X128.2Y-87.07
X128.225Y-84.1
X128.225Y-103.25
X128.25Y-116.25
X128.25Y-117.75
X128.25Y-120.5
X128.25Y-121.75
X128.25Y-123.25
X128.25Y-124.75
X128.25Y-130.75
X128.25Y-132.25
X128.25Y-133.75
X128.25Y-136.25
X128.25Y-137.75
X128.25Y-139.25
X130.25Y-51.15
X130.25Y-58.1
X130.25Y-64.95
X130.25Y-71.9
X131.44Y-99.57
X132.08Y-93.49
X132.175Y-138.65
X132.29Y-82.29
X132.8Y-86.575
X132.8Y-89.55
X132.9Y-123.25
X132.9Y-132.25
X132.975Y-117.75
X133.0Y-103.25
X133.0Y-108.75
X134.175Y-72.35
X134.425Y-99.62
X135.8Y-73.525
X139.9Y-144.9
X141.15Y-83.27
X141.15Y-112.95
X167.05Y-133.3
X216.78Y-125.96
X217.33Y-131.87
X220.79Y-130.15
X221.275Y-128.675
X222.33Y-137.12
X226.74Y-131.925
X227.175Y-128.675
X229.38Y-131.64
X230.4Y-131.975
X231.075Y-122.85
X231.075Y-124.6
X232.84Y-133.28
X235.14Y-134.25
X239.15Y-117.525
X239.5Y-126.25
X239.5Y-127.75
X239.5Y-129.25
X239.5Y-130.75
X239.5Y-133.75
T2
X114.1Y-69.1
T3
X103.785Y-51.0
X103.785Y-53.54
X103.785Y-56.08
X103.785Y-58.62
X103.785Y-61.16
X103.785Y-63.7
X103.785Y-66.24
X103.785Y-68.78
X103.785Y-71.32
X103.785Y-73.86
X103.785Y-76.4
X103.785Y-78.94
X103.785Y-81.48
X103.785Y-84.02
X103.785Y-86.56
X103.785Y-89.1
X103.785Y-91.64
X103.785Y-94.18
X103.785Y-96.72
X103.785Y-99.26
X103.785Y-101.8
X103.785Y-104.34
X103.785Y-106.88
X103.785Y-109.42
X103.785Y-111.96
X103.785Y-117.04
X103.785Y-119.58
X103.785Y-122.12
X103.785Y-124.66
X103.785Y-127.2
X103.785Y-129.74
X103.785Y-132.28
X103.785Y-134.82
X103.785Y-137.36
X103.785Y-139.9
X103.785Y-142.44
X105.69Y-49.73
X105.69Y-52.27
X105.69Y-54.81
X105.69Y-57.35
X105.69Y-59.89
X105.69Y-62.43
X105.69Y-64.97
X105.69Y-67.51
X105.69Y-70.05
X105.69Y-72.59
X105.69Y-75.13
X105.69Y-77.67
X105.69Y-80.21
X105.69Y-82.75
X105.69Y-85.29
X105.69Y-87.83
X105.69Y-90.37
X105.69Y-92.91
X105.69Y-95.45
X105.69Y-97.99
X105.69Y-100.53
X105.69Y-103.07
X105.69Y-105.61
X105.69Y-108.15
X105.69Y-110.69
X105.69Y-115.77
X105.69Y-118.31
X105.69Y-120.85
X105.69Y-123.39
X105.69Y-125.93
X105.69Y-128.47
X105.69Y-131.01
X105.69Y-133.55
X105.69Y-136.09
X105.69Y-138.63
X105.69Y-141.17
X105.69Y-143.71
X107.595Y-51.0
X107.595Y-53.54
X107.595Y-56.08
X107.595Y-58.62
X107.595Y-61.16
X107.595Y-63.7
X107.595Y-66.24
X107.595Y-68.78
X107.595Y-71.32
X107.595Y-73.86
X107.595Y-76.4
X107.595Y-78.94
X107.595Y-81.48
X107.595Y-84.02
X107.595Y-86.56
X107.595Y-89.1
X107.595Y-91.64
X107.595Y-94.18
X107.595Y-96.72
X107.595Y-99.26
X107.595Y-101.8
X107.595Y-104.34
X107.595Y-106.88
X107.595Y-109.42
X107.595Y-111.96
X107.595Y-117.04
X107.595Y-119.58
X107.595Y-122.12
X107.595Y-124.66
X107.595Y-127.2
X107.595Y-129.74
X107.595Y-132.28
X107.595Y-134.82
X107.595Y-137.36
X107.595Y-139.9
X107.595Y-142.44
X109.5Y-49.73
X109.5Y-52.27
X109.5Y-54.81
X109.5Y-57.35
X109.5Y-59.89
X109.5Y-62.43
X109.5Y-64.97
X109.5Y-67.51
X109.5Y-70.05
X109.5Y-72.59
X109.5Y-75.13
X109.5Y-77.67
X109.5Y-80.21
X109.5Y-82.75
X109.5Y-85.29
X109.5Y-87.83
X109.5Y-90.37
X109.5Y-92.91
X109.5Y-95.45
X109.5Y-97.99
X109.5Y-100.53
X109.5Y-103.07
X109.5Y-105.61
X109.5Y-108.15
X109.5Y-110.69
X109.5Y-115.77
X109.5Y-118.31
X109.5Y-120.85
X109.5Y-123.39
X109.5Y-125.93
X109.5Y-128.47
X109.5Y-131.01
X109.5Y-133.55
X109.5Y-136.09
X109.5Y-138.63
X109.5Y-141.17
T4
X103.785Y-144.98
X105.69Y-146.25
X107.595Y-144.98
X109.5Y-143.71
X109.5Y-146.25
T6
X156.965Y-138.673
X156.965Y-141.213
X157.049Y-79.992
X157.049Y-82.531
X159.505Y-138.673
X159.505Y-141.213
X159.589Y-79.992
X159.589Y-82.531
X162.045Y-138.673
X162.045Y-141.213
X162.129Y-79.992
X162.129Y-82.531
X164.585Y-138.673
X164.585Y-141.213
X164.669Y-79.992
X164.669Y-82.531
X167.125Y-138.673
X167.125Y-141.213
X167.209Y-79.992
X167.209Y-82.531
X169.665Y-138.673
X169.665Y-141.213
X169.749Y-79.992
X169.749Y-82.531
X172.205Y-138.673
X172.205Y-141.213
X172.289Y-79.992
X172.289Y-82.531
X174.745Y-138.673
X174.745Y-141.213
X174.829Y-79.992
X174.829Y-82.531
X177.285Y-138.673
X177.285Y-141.213
X177.369Y-79.992
X177.369Y-82.531
X179.825Y-138.673
X179.825Y-141.213
X179.909Y-79.992
X179.909Y-82.531
X182.365Y-138.673
X182.365Y-141.213
X182.449Y-79.992
X182.449Y-82.531
X184.905Y-138.673
X184.905Y-141.213
X184.989Y-79.992
X184.989Y-82.531
X187.445Y-138.673
X187.445Y-141.213
X187.529Y-79.992
X187.529Y-82.531
X189.985Y-138.673
X189.985Y-141.213
X190.069Y-79.992
X190.069Y-82.531
X192.525Y-138.673
X192.525Y-141.213
X192.609Y-79.992
X192.609Y-82.531
X195.065Y-138.673
X195.065Y-141.213
X195.149Y-79.992
X195.149Y-82.531
X197.605Y-138.673
X197.605Y-141.213
X197.689Y-79.992
X197.689Y-82.531
X200.145Y-138.673
X200.145Y-141.213
X200.229Y-79.992
X200.229Y-82.531
X202.685Y-138.673
X202.685Y-141.213
X202.769Y-79.992
X202.769Y-82.531
X205.225Y-138.673
X205.225Y-141.213
X205.309Y-79.992
X205.309Y-82.531
X208.984Y-86.514
X208.984Y-89.054
X208.984Y-91.594
X208.984Y-94.134
X208.984Y-96.674
X208.984Y-99.214
X208.984Y-101.754
X208.984Y-104.294
X208.984Y-106.834
X208.984Y-109.374
X208.984Y-111.914
X208.984Y-114.454
X208.984Y-116.994
X208.984Y-119.534
X208.984Y-122.074
X208.984Y-124.614
X208.984Y-127.154
X208.984Y-129.694
X208.984Y-132.234
X208.984Y-134.774
X211.524Y-86.514
X211.524Y-89.054
X211.524Y-91.594
X211.524Y-94.134
X211.524Y-96.674
X211.524Y-99.214
X211.524Y-101.754
X211.524Y-104.294
X211.524Y-106.834
X211.524Y-109.374
X211.524Y-111.914
X211.524Y-114.454
X211.524Y-116.994
X211.524Y-119.534
X211.524Y-122.074
X211.524Y-124.614
X211.524Y-127.154
X211.524Y-129.694
X211.524Y-132.234
X211.524Y-134.774
X143.4Y-74.725
X145.94Y-74.725
X122.96Y-144.9
X125.5Y-144.9
X128.04Y-144.9
X143.4Y-53.15
X143.4Y-55.69
X143.4Y-58.23
X143.4Y-60.77
X143.4Y-63.31
X143.4Y-65.85
X145.94Y-53.15
X145.94Y-55.69
X145.94Y-58.23
X145.94Y-60.77
X145.94Y-63.31
X145.94Y-65.85
X227.28Y-141.26
X227.28Y-143.8
X229.82Y-141.26
X229.82Y-143.8
X232.36Y-141.26
X232.36Y-143.8
X234.9Y-141.26
X234.9Y-143.8
X237.44Y-141.26
X237.44Y-143.8
T5
G00X237.1Y-123.0
M15
G01X238.9Y-123.0
M16
G05
G00X237.1Y-137.5
M15
G01X238.9Y-137.5
M16
G05
G00X243.36Y-123.0
M15
G01X244.56Y-123.0
M16
G05
G00X243.36Y-137.5
M15
G01X244.56Y-137.5
M16
G05
T0
M30
