G04 #@! TF.GenerationSoftware,KiCad,Pcbnew,(5.1.5)-3*
G04 #@! TF.CreationDate,2020-03-16T17:52:28+03:00*
G04 #@! TF.ProjectId,WM1200,574d3132-3030-42e6-9b69-6361645f7063,rev?*
G04 #@! TF.SameCoordinates,Original*
G04 #@! TF.FileFunction,Legend,Top*
G04 #@! TF.FilePolarity,Positive*
%FSLAX46Y46*%
G04 Gerber Fmt 4.6, Leading zero omitted, Abs format (unit mm)*
G04 Created by KiCad (PCBNEW (5.1.5)-3) date 2020-03-16 17:52:28*
%MOMM*%
%LPD*%
G04 APERTURE LIST*
%ADD10C,0.200000*%
%ADD11C,0.400000*%
%ADD12C,0.150000*%
%ADD13C,0.120000*%
G04 APERTURE END LIST*
D10*
X225000000Y-96392857D02*
X225500000Y-96392857D01*
X225714285Y-97178571D02*
X225000000Y-97178571D01*
X225000000Y-95678571D01*
X225714285Y-95678571D01*
X226285714Y-97107142D02*
X226500000Y-97178571D01*
X226857142Y-97178571D01*
X227000000Y-97107142D01*
X227071428Y-97035714D01*
X227142857Y-96892857D01*
X227142857Y-96750000D01*
X227071428Y-96607142D01*
X227000000Y-96535714D01*
X226857142Y-96464285D01*
X226571428Y-96392857D01*
X226428571Y-96321428D01*
X226357142Y-96250000D01*
X226285714Y-96107142D01*
X226285714Y-95964285D01*
X226357142Y-95821428D01*
X226428571Y-95750000D01*
X226571428Y-95678571D01*
X226928571Y-95678571D01*
X227142857Y-95750000D01*
X228571428Y-97178571D02*
X227714285Y-97178571D01*
X228142857Y-97178571D02*
X228142857Y-95678571D01*
X228000000Y-95892857D01*
X227857142Y-96035714D01*
X227714285Y-96107142D01*
X230357142Y-97178571D02*
X230357142Y-95678571D01*
X230357142Y-96250000D02*
X230500000Y-96178571D01*
X230785714Y-96178571D01*
X230928571Y-96250000D01*
X231000000Y-96321428D01*
X231071428Y-96464285D01*
X231071428Y-96892857D01*
X231000000Y-97035714D01*
X230928571Y-97107142D01*
X230785714Y-97178571D01*
X230500000Y-97178571D01*
X230357142Y-97107142D01*
X231928571Y-97178571D02*
X231785714Y-97107142D01*
X231714285Y-97035714D01*
X231642857Y-96892857D01*
X231642857Y-96464285D01*
X231714285Y-96321428D01*
X231785714Y-96250000D01*
X231928571Y-96178571D01*
X232142857Y-96178571D01*
X232285714Y-96250000D01*
X232357142Y-96321428D01*
X232428571Y-96464285D01*
X232428571Y-96892857D01*
X232357142Y-97035714D01*
X232285714Y-97107142D01*
X232142857Y-97178571D01*
X231928571Y-97178571D01*
X233714285Y-97178571D02*
X233714285Y-96392857D01*
X233642857Y-96250000D01*
X233500000Y-96178571D01*
X233214285Y-96178571D01*
X233071428Y-96250000D01*
X233714285Y-97107142D02*
X233571428Y-97178571D01*
X233214285Y-97178571D01*
X233071428Y-97107142D01*
X233000000Y-96964285D01*
X233000000Y-96821428D01*
X233071428Y-96678571D01*
X233214285Y-96607142D01*
X233571428Y-96607142D01*
X233714285Y-96535714D01*
X234428571Y-97178571D02*
X234428571Y-96178571D01*
X234428571Y-96464285D02*
X234500000Y-96321428D01*
X234571428Y-96250000D01*
X234714285Y-96178571D01*
X234857142Y-96178571D01*
X236000000Y-97178571D02*
X236000000Y-95678571D01*
X236000000Y-97107142D02*
X235857142Y-97178571D01*
X235571428Y-97178571D01*
X235428571Y-97107142D01*
X235357142Y-97035714D01*
X235285714Y-96892857D01*
X235285714Y-96464285D01*
X235357142Y-96321428D01*
X235428571Y-96250000D01*
X235571428Y-96178571D01*
X235857142Y-96178571D01*
X236000000Y-96250000D01*
X221892857Y-100178571D02*
X221892857Y-98678571D01*
X222750000Y-100178571D02*
X222107142Y-99321428D01*
X222750000Y-98678571D02*
X221892857Y-99535714D01*
X223607142Y-100178571D02*
X223464285Y-100107142D01*
X223392857Y-100035714D01*
X223321428Y-99892857D01*
X223321428Y-99464285D01*
X223392857Y-99321428D01*
X223464285Y-99250000D01*
X223607142Y-99178571D01*
X223821428Y-99178571D01*
X223964285Y-99250000D01*
X224035714Y-99321428D01*
X224107142Y-99464285D01*
X224107142Y-99892857D01*
X224035714Y-100035714D01*
X223964285Y-100107142D01*
X223821428Y-100178571D01*
X223607142Y-100178571D01*
X224750000Y-99178571D02*
X224750000Y-100178571D01*
X224750000Y-99321428D02*
X224821428Y-99250000D01*
X224964285Y-99178571D01*
X225178571Y-99178571D01*
X225321428Y-99250000D01*
X225392857Y-99392857D01*
X225392857Y-100178571D01*
X225892857Y-99178571D02*
X226464285Y-99178571D01*
X226107142Y-100178571D02*
X226107142Y-98892857D01*
X226178571Y-98750000D01*
X226321428Y-98678571D01*
X226464285Y-98678571D01*
X227607142Y-99178571D02*
X227607142Y-100178571D01*
X226964285Y-99178571D02*
X226964285Y-99964285D01*
X227035714Y-100107142D01*
X227178571Y-100178571D01*
X227392857Y-100178571D01*
X227535714Y-100107142D01*
X227607142Y-100035714D01*
X228250000Y-100107142D02*
X228392857Y-100178571D01*
X228678571Y-100178571D01*
X228821428Y-100107142D01*
X228892857Y-99964285D01*
X228892857Y-99892857D01*
X228821428Y-99750000D01*
X228678571Y-99678571D01*
X228464285Y-99678571D01*
X228321428Y-99607142D01*
X228250000Y-99464285D01*
X228250000Y-99392857D01*
X228321428Y-99250000D01*
X228464285Y-99178571D01*
X228678571Y-99178571D01*
X228821428Y-99250000D01*
X229535714Y-100178571D02*
X229535714Y-99178571D01*
X229535714Y-98678571D02*
X229464285Y-98750000D01*
X229535714Y-98821428D01*
X229607142Y-98750000D01*
X229535714Y-98678571D01*
X229535714Y-98821428D01*
X230464285Y-100178571D02*
X230321428Y-100107142D01*
X230250000Y-100035714D01*
X230178571Y-99892857D01*
X230178571Y-99464285D01*
X230250000Y-99321428D01*
X230321428Y-99250000D01*
X230464285Y-99178571D01*
X230678571Y-99178571D01*
X230821428Y-99250000D01*
X230892857Y-99321428D01*
X230964285Y-99464285D01*
X230964285Y-99892857D01*
X230892857Y-100035714D01*
X230821428Y-100107142D01*
X230678571Y-100178571D01*
X230464285Y-100178571D01*
X231607142Y-99178571D02*
X231607142Y-100178571D01*
X231607142Y-99321428D02*
X231678571Y-99250000D01*
X231821428Y-99178571D01*
X232035714Y-99178571D01*
X232178571Y-99250000D01*
X232250000Y-99392857D01*
X232250000Y-100178571D01*
X234035714Y-98821428D02*
X234107142Y-98750000D01*
X234250000Y-98678571D01*
X234607142Y-98678571D01*
X234750000Y-98750000D01*
X234821428Y-98821428D01*
X234892857Y-98964285D01*
X234892857Y-99107142D01*
X234821428Y-99321428D01*
X233964285Y-100178571D01*
X234892857Y-100178571D01*
X235821428Y-98678571D02*
X235964285Y-98678571D01*
X236107142Y-98750000D01*
X236178571Y-98821428D01*
X236250000Y-98964285D01*
X236321428Y-99250000D01*
X236321428Y-99607142D01*
X236250000Y-99892857D01*
X236178571Y-100035714D01*
X236107142Y-100107142D01*
X235964285Y-100178571D01*
X235821428Y-100178571D01*
X235678571Y-100107142D01*
X235607142Y-100035714D01*
X235535714Y-99892857D01*
X235464285Y-99607142D01*
X235464285Y-99250000D01*
X235535714Y-98964285D01*
X235607142Y-98821428D01*
X235678571Y-98750000D01*
X235821428Y-98678571D01*
X236892857Y-98821428D02*
X236964285Y-98750000D01*
X237107142Y-98678571D01*
X237464285Y-98678571D01*
X237607142Y-98750000D01*
X237678571Y-98821428D01*
X237750000Y-98964285D01*
X237750000Y-99107142D01*
X237678571Y-99321428D01*
X236821428Y-100178571D01*
X237750000Y-100178571D01*
X238678571Y-98678571D02*
X238821428Y-98678571D01*
X238964285Y-98750000D01*
X239035714Y-98821428D01*
X239107142Y-98964285D01*
X239178571Y-99250000D01*
X239178571Y-99607142D01*
X239107142Y-99892857D01*
X239035714Y-100035714D01*
X238964285Y-100107142D01*
X238821428Y-100178571D01*
X238678571Y-100178571D01*
X238535714Y-100107142D01*
X238464285Y-100035714D01*
X238392857Y-99892857D01*
X238321428Y-99607142D01*
X238321428Y-99250000D01*
X238392857Y-98964285D01*
X238464285Y-98821428D01*
X238535714Y-98750000D01*
X238678571Y-98678571D01*
D11*
X214667648Y-91830952D02*
X214950386Y-94330952D01*
X215649791Y-92545238D01*
X215902767Y-94330952D01*
X216810505Y-91830952D01*
X217450386Y-94330952D02*
X217658720Y-92664285D01*
X217762886Y-91830952D02*
X217628958Y-91950000D01*
X217733125Y-92069047D01*
X217867053Y-91950000D01*
X217762886Y-91830952D01*
X217733125Y-92069047D01*
X218536696Y-94211904D02*
X218759910Y-94330952D01*
X219236101Y-94330952D01*
X219489077Y-94211904D01*
X219637886Y-93973809D01*
X219652767Y-93854761D01*
X219563482Y-93616666D01*
X219340267Y-93497619D01*
X218983125Y-93497619D01*
X218759910Y-93378571D01*
X218670625Y-93140476D01*
X218685505Y-93021428D01*
X218834315Y-92783333D01*
X219087291Y-92664285D01*
X219444434Y-92664285D01*
X219667648Y-92783333D01*
X220664672Y-94330952D02*
X220977172Y-91830952D01*
X221736101Y-94330952D02*
X221899791Y-93021428D01*
X221810505Y-92783333D01*
X221587291Y-92664285D01*
X221230148Y-92664285D01*
X220977172Y-92783333D01*
X220843244Y-92902380D01*
X222926577Y-94330952D02*
X223134910Y-92664285D01*
X223105148Y-92902380D02*
X223239077Y-92783333D01*
X223492053Y-92664285D01*
X223849196Y-92664285D01*
X224072410Y-92783333D01*
X224161696Y-93021428D01*
X223998005Y-94330952D01*
X224161696Y-93021428D02*
X224310505Y-92783333D01*
X224563482Y-92664285D01*
X224920625Y-92664285D01*
X225143839Y-92783333D01*
X225233125Y-93021428D01*
X225069434Y-94330952D01*
X227331339Y-94330952D02*
X227495029Y-93021428D01*
X227405744Y-92783333D01*
X227182529Y-92664285D01*
X226706339Y-92664285D01*
X226453363Y-92783333D01*
X227346220Y-94211904D02*
X227093244Y-94330952D01*
X226498005Y-94330952D01*
X226274791Y-94211904D01*
X226185505Y-93973809D01*
X226215267Y-93735714D01*
X226364077Y-93497619D01*
X226617053Y-93378571D01*
X227212291Y-93378571D01*
X227465267Y-93259523D01*
X228417648Y-94211904D02*
X228640863Y-94330952D01*
X229117053Y-94330952D01*
X229370029Y-94211904D01*
X229518839Y-93973809D01*
X229533720Y-93854761D01*
X229444434Y-93616666D01*
X229221220Y-93497619D01*
X228864077Y-93497619D01*
X228640863Y-93378571D01*
X228551577Y-93140476D01*
X228566458Y-93021428D01*
X228715267Y-92783333D01*
X228968244Y-92664285D01*
X229325386Y-92664285D01*
X229548601Y-92783333D01*
X230396815Y-92664285D02*
X231349196Y-92664285D01*
X230858125Y-91830952D02*
X230590267Y-93973809D01*
X230679553Y-94211904D01*
X230902767Y-94330952D01*
X231140863Y-94330952D01*
X232941458Y-94211904D02*
X232688482Y-94330952D01*
X232212291Y-94330952D01*
X231989077Y-94211904D01*
X231899791Y-93973809D01*
X232018839Y-93021428D01*
X232167648Y-92783333D01*
X232420625Y-92664285D01*
X232896815Y-92664285D01*
X233120029Y-92783333D01*
X233209315Y-93021428D01*
X233179553Y-93259523D01*
X231959315Y-93497619D01*
X234117053Y-94330952D02*
X234325386Y-92664285D01*
X234265863Y-93140476D02*
X234414672Y-92902380D01*
X234548601Y-92783333D01*
X234801577Y-92664285D01*
X235039672Y-92664285D01*
X238878958Y-94330952D02*
X237450386Y-94330952D01*
X238164672Y-94330952D02*
X238477172Y-91830952D01*
X238194434Y-92188095D01*
X237926577Y-92426190D01*
X237673601Y-92545238D01*
X240114077Y-92069047D02*
X240248005Y-91950000D01*
X240500982Y-91830952D01*
X241096220Y-91830952D01*
X241319434Y-91950000D01*
X241423601Y-92069047D01*
X241512886Y-92307142D01*
X241483125Y-92545238D01*
X241319434Y-92902380D01*
X239712291Y-94330952D01*
X241259910Y-94330952D01*
X243120029Y-91830952D02*
X243358125Y-91830952D01*
X243581339Y-91950000D01*
X243685505Y-92069047D01*
X243774791Y-92307142D01*
X243834315Y-92783333D01*
X243759910Y-93378571D01*
X243581339Y-93854761D01*
X243432529Y-94092857D01*
X243298601Y-94211904D01*
X243045625Y-94330952D01*
X242807529Y-94330952D01*
X242584315Y-94211904D01*
X242480148Y-94092857D01*
X242390863Y-93854761D01*
X242331339Y-93378571D01*
X242405744Y-92783333D01*
X242584315Y-92307142D01*
X242733125Y-92069047D01*
X242867053Y-91950000D01*
X243120029Y-91830952D01*
X245500982Y-91830952D02*
X245739077Y-91830952D01*
X245962291Y-91950000D01*
X246066458Y-92069047D01*
X246155744Y-92307142D01*
X246215267Y-92783333D01*
X246140863Y-93378571D01*
X245962291Y-93854761D01*
X245813482Y-94092857D01*
X245679553Y-94211904D01*
X245426577Y-94330952D01*
X245188482Y-94330952D01*
X244965267Y-94211904D01*
X244861101Y-94092857D01*
X244771815Y-93854761D01*
X244712291Y-93378571D01*
X244786696Y-92783333D01*
X244965267Y-92307142D01*
X245114077Y-92069047D01*
X245248005Y-91950000D01*
X245500982Y-91830952D01*
D12*
X128940000Y-128997936D02*
X128940000Y-130202064D01*
X131660000Y-128997936D02*
X131660000Y-130202064D01*
X123840000Y-131085436D02*
X123840000Y-132289564D01*
X126560000Y-131085436D02*
X126560000Y-132289564D01*
X127720000Y-67760000D02*
X128650000Y-67760000D01*
X130880000Y-67760000D02*
X129950000Y-67760000D01*
X130880000Y-67760000D02*
X130880000Y-65600000D01*
X127720000Y-67760000D02*
X127720000Y-66300000D01*
X127720000Y-53960000D02*
X128650000Y-53960000D01*
X130880000Y-53960000D02*
X129950000Y-53960000D01*
X130880000Y-53960000D02*
X130880000Y-51800000D01*
X127720000Y-53960000D02*
X127720000Y-52500000D01*
X127720000Y-102010000D02*
X128650000Y-102010000D01*
X130880000Y-102010000D02*
X129950000Y-102010000D01*
X130880000Y-102010000D02*
X130880000Y-99850000D01*
X127720000Y-102010000D02*
X127720000Y-100550000D01*
X127720000Y-60860000D02*
X128650000Y-60860000D01*
X130880000Y-60860000D02*
X129950000Y-60860000D01*
X130880000Y-60860000D02*
X130880000Y-58700000D01*
X127720000Y-60860000D02*
X127720000Y-59400000D01*
X127720000Y-74610000D02*
X128650000Y-74610000D01*
X130880000Y-74610000D02*
X129950000Y-74610000D01*
X130880000Y-74610000D02*
X130880000Y-72450000D01*
X127720000Y-74610000D02*
X127720000Y-73150000D01*
X127720000Y-109760000D02*
X128650000Y-109760000D01*
X130880000Y-109760000D02*
X129950000Y-109760000D01*
X130880000Y-109760000D02*
X130880000Y-107600000D01*
X127720000Y-109760000D02*
X127720000Y-108300000D01*
X124855001Y-128235001D02*
X126615001Y-128235001D01*
X126615001Y-125165001D02*
X124185001Y-125165001D01*
X120540000Y-67420000D02*
X120540000Y-68350000D01*
X120540000Y-70580000D02*
X120540000Y-69650000D01*
X120540000Y-70580000D02*
X122700000Y-70580000D01*
X120540000Y-67420000D02*
X122000000Y-67420000D01*
X120540000Y-53620000D02*
X120540000Y-54550000D01*
X120540000Y-56780000D02*
X120540000Y-55850000D01*
X120540000Y-56780000D02*
X122700000Y-56780000D01*
X120540000Y-53620000D02*
X122000000Y-53620000D01*
X120540000Y-101670000D02*
X120540000Y-102600000D01*
X120540000Y-104830000D02*
X120540000Y-103900000D01*
X120540000Y-104830000D02*
X122700000Y-104830000D01*
X120540000Y-101670000D02*
X122000000Y-101670000D01*
X120540000Y-60520000D02*
X120540000Y-61450000D01*
X120540000Y-63680000D02*
X120540000Y-62750000D01*
X120540000Y-63680000D02*
X122700000Y-63680000D01*
X120540000Y-60520000D02*
X122000000Y-60520000D01*
X120540000Y-74270000D02*
X120540000Y-75200000D01*
X120540000Y-77430000D02*
X120540000Y-76500000D01*
X120540000Y-77430000D02*
X122700000Y-77430000D01*
X120540000Y-74270000D02*
X122000000Y-74270000D01*
X120540000Y-109420000D02*
X120540000Y-110350000D01*
X120540000Y-112580000D02*
X120540000Y-111650000D01*
X120540000Y-112580000D02*
X122700000Y-112580000D01*
X120540000Y-109420000D02*
X122000000Y-109420000D01*
X238770000Y-145130000D02*
X238770000Y-139930000D01*
X228550000Y-145130000D02*
X238770000Y-145130000D01*
X225950000Y-139930000D02*
X238770000Y-139930000D01*
X228550000Y-145130000D02*
X228550000Y-142530000D01*
X228550000Y-142530000D02*
X225950000Y-142530000D01*
X225950000Y-142530000D02*
X225950000Y-139930000D01*
X227280000Y-145130000D02*
X225950000Y-145130000D01*
X225950000Y-145130000D02*
X225950000Y-143800000D01*
X147270000Y-67180000D02*
X145940000Y-67180000D01*
X147270000Y-65850000D02*
X147270000Y-67180000D01*
X144670000Y-67180000D02*
X142070000Y-67180000D01*
X144670000Y-64580000D02*
X144670000Y-67180000D01*
X147270000Y-64580000D02*
X144670000Y-64580000D01*
X142070000Y-67180000D02*
X142070000Y-51820000D01*
X147270000Y-64580000D02*
X147270000Y-51820000D01*
X147270000Y-51820000D02*
X142070000Y-51820000D01*
X147270000Y-76055000D02*
X147270000Y-73395000D01*
X144670000Y-76055000D02*
X147270000Y-76055000D01*
X144670000Y-73395000D02*
X147270000Y-73395000D01*
X144670000Y-76055000D02*
X144670000Y-73395000D01*
X143400000Y-76055000D02*
X142070000Y-76055000D01*
X142070000Y-76055000D02*
X142070000Y-74725000D01*
X129370000Y-146230000D02*
X129370000Y-143570000D01*
X124230000Y-146230000D02*
X129370000Y-146230000D01*
X124230000Y-143570000D02*
X129370000Y-143570000D01*
X124230000Y-146230000D02*
X124230000Y-143570000D01*
X122960000Y-146230000D02*
X121630000Y-146230000D01*
X121630000Y-146230000D02*
X121630000Y-144900000D01*
X122375000Y-83050000D02*
X121300000Y-83050000D01*
X122375000Y-95625000D02*
X128725000Y-95625000D01*
X122375000Y-82875000D02*
X128725000Y-82875000D01*
X122375000Y-95625000D02*
X122375000Y-95367500D01*
X128725000Y-95625000D02*
X128725000Y-95367500D01*
X128725000Y-82875000D02*
X128725000Y-83132500D01*
X122375000Y-82875000D02*
X122375000Y-83050000D01*
X234500000Y-122000000D02*
X247940000Y-122000000D01*
X234500000Y-138500000D02*
X247940000Y-138500000D01*
X234500000Y-138500000D02*
X234500000Y-122000000D01*
X247940000Y-121999880D02*
X247940000Y-138500000D01*
X222925000Y-133025000D02*
X227575000Y-133025000D01*
X221850000Y-124925000D02*
X227575000Y-124925000D01*
X222925000Y-133025000D02*
X222925000Y-133000000D01*
X227575000Y-133025000D02*
X227575000Y-133000000D01*
X227575000Y-124975000D02*
X227575000Y-125000000D01*
D13*
X220160000Y-129446267D02*
X220160000Y-129103733D01*
X219140000Y-129446267D02*
X219140000Y-129103733D01*
X240186266Y-118640000D02*
X239843732Y-118640000D01*
X240186266Y-119660000D02*
X239843732Y-119660000D01*
X221815000Y-134878733D02*
X221815000Y-135221267D01*
X222835000Y-134878733D02*
X222835000Y-135221267D01*
X217285000Y-129446267D02*
X217285000Y-129103733D01*
X216265000Y-129446267D02*
X216265000Y-129103733D01*
X219011267Y-125090000D02*
X218668733Y-125090000D01*
X219011267Y-126110000D02*
X218668733Y-126110000D01*
X124810000Y-69171267D02*
X124810000Y-68828733D01*
X123790000Y-69171267D02*
X123790000Y-68828733D01*
X129128733Y-70510000D02*
X129471267Y-70510000D01*
X129128733Y-69490000D02*
X129471267Y-69490000D01*
X124810000Y-55371267D02*
X124810000Y-55028733D01*
X123790000Y-55371267D02*
X123790000Y-55028733D01*
X129128733Y-56710000D02*
X129471267Y-56710000D01*
X129128733Y-55690000D02*
X129471267Y-55690000D01*
X124810000Y-103421267D02*
X124810000Y-103078733D01*
X123790000Y-103421267D02*
X123790000Y-103078733D01*
X129128733Y-104760000D02*
X129471267Y-104760000D01*
X129128733Y-103740000D02*
X129471267Y-103740000D01*
X132790000Y-101078733D02*
X132790000Y-101421267D01*
X133810000Y-101078733D02*
X133810000Y-101421267D01*
X124810000Y-62271267D02*
X124810000Y-61928733D01*
X123790000Y-62271267D02*
X123790000Y-61928733D01*
X129128733Y-63610000D02*
X129471267Y-63610000D01*
X129128733Y-62590000D02*
X129471267Y-62590000D01*
X124810000Y-76021267D02*
X124810000Y-75678733D01*
X123790000Y-76021267D02*
X123790000Y-75678733D01*
X129128733Y-77360000D02*
X129471267Y-77360000D01*
X129128733Y-76340000D02*
X129471267Y-76340000D01*
X124810000Y-111171267D02*
X124810000Y-110828733D01*
X123790000Y-111171267D02*
X123790000Y-110828733D01*
X132790000Y-73678733D02*
X132790000Y-74021267D01*
X133810000Y-73678733D02*
X133810000Y-74021267D01*
X129128733Y-112510000D02*
X129471267Y-112510000D01*
X129128733Y-111490000D02*
X129471267Y-111490000D01*
X125478733Y-120235000D02*
X125821267Y-120235000D01*
X125478733Y-119215000D02*
X125821267Y-119215000D01*
X125478733Y-118235000D02*
X125821267Y-118235000D01*
X125478733Y-117215000D02*
X125821267Y-117215000D01*
X130128733Y-126210000D02*
X130471267Y-126210000D01*
X130128733Y-125190000D02*
X130471267Y-125190000D01*
X240186266Y-120234999D02*
X239843732Y-120234999D01*
X240186266Y-121254999D02*
X239843732Y-121254999D01*
X230635000Y-123896267D02*
X230635000Y-123553733D01*
X229615000Y-123896267D02*
X229615000Y-123553733D01*
X219646267Y-131365000D02*
X219303733Y-131365000D01*
X219646267Y-132385000D02*
X219303733Y-132385000D01*
X230578733Y-133410000D02*
X230921267Y-133410000D01*
X230578733Y-132390000D02*
X230921267Y-132390000D01*
X125790000Y-68828733D02*
X125790000Y-69171267D01*
X126810000Y-68828733D02*
X126810000Y-69171267D01*
X125790000Y-55028733D02*
X125790000Y-55371267D01*
X126810000Y-55028733D02*
X126810000Y-55371267D01*
X125790000Y-103078733D02*
X125790000Y-103421267D01*
X126810000Y-103078733D02*
X126810000Y-103421267D01*
X125790000Y-61928733D02*
X125790000Y-62271267D01*
X126810000Y-61928733D02*
X126810000Y-62271267D01*
X125790000Y-75678733D02*
X125790000Y-76021267D01*
X126810000Y-75678733D02*
X126810000Y-76021267D01*
X125790000Y-110828733D02*
X125790000Y-111171267D01*
X126810000Y-110828733D02*
X126810000Y-111171267D01*
D12*
X132937142Y-130242857D02*
X132984761Y-130290476D01*
X133032380Y-130433333D01*
X133032380Y-130528571D01*
X132984761Y-130671428D01*
X132889523Y-130766666D01*
X132794285Y-130814285D01*
X132603809Y-130861904D01*
X132460952Y-130861904D01*
X132270476Y-130814285D01*
X132175238Y-130766666D01*
X132080000Y-130671428D01*
X132032380Y-130528571D01*
X132032380Y-130433333D01*
X132080000Y-130290476D01*
X132127619Y-130242857D01*
X132127619Y-129861904D02*
X132080000Y-129814285D01*
X132032380Y-129719047D01*
X132032380Y-129480952D01*
X132080000Y-129385714D01*
X132127619Y-129338095D01*
X132222857Y-129290476D01*
X132318095Y-129290476D01*
X132460952Y-129338095D01*
X133032380Y-129909523D01*
X133032380Y-129290476D01*
X132127619Y-128909523D02*
X132080000Y-128861904D01*
X132032380Y-128766666D01*
X132032380Y-128528571D01*
X132080000Y-128433333D01*
X132127619Y-128385714D01*
X132222857Y-128338095D01*
X132318095Y-128338095D01*
X132460952Y-128385714D01*
X133032380Y-128957142D01*
X133032380Y-128338095D01*
X127837142Y-132330357D02*
X127884761Y-132377976D01*
X127932380Y-132520833D01*
X127932380Y-132616071D01*
X127884761Y-132758928D01*
X127789523Y-132854166D01*
X127694285Y-132901785D01*
X127503809Y-132949404D01*
X127360952Y-132949404D01*
X127170476Y-132901785D01*
X127075238Y-132854166D01*
X126980000Y-132758928D01*
X126932380Y-132616071D01*
X126932380Y-132520833D01*
X126980000Y-132377976D01*
X127027619Y-132330357D01*
X127027619Y-131949404D02*
X126980000Y-131901785D01*
X126932380Y-131806547D01*
X126932380Y-131568452D01*
X126980000Y-131473214D01*
X127027619Y-131425595D01*
X127122857Y-131377976D01*
X127218095Y-131377976D01*
X127360952Y-131425595D01*
X127932380Y-131997023D01*
X127932380Y-131377976D01*
X127932380Y-130425595D02*
X127932380Y-130997023D01*
X127932380Y-130711309D02*
X126932380Y-130711309D01*
X127075238Y-130806547D01*
X127170476Y-130901785D01*
X127218095Y-130997023D01*
X132252380Y-67738095D02*
X131252380Y-67738095D01*
X131252380Y-67500000D01*
X131300000Y-67357142D01*
X131395238Y-67261904D01*
X131490476Y-67214285D01*
X131680952Y-67166666D01*
X131823809Y-67166666D01*
X132014285Y-67214285D01*
X132109523Y-67261904D01*
X132204761Y-67357142D01*
X132252380Y-67500000D01*
X132252380Y-67738095D01*
X131252380Y-66309523D02*
X131252380Y-66500000D01*
X131300000Y-66595238D01*
X131347619Y-66642857D01*
X131490476Y-66738095D01*
X131680952Y-66785714D01*
X132061904Y-66785714D01*
X132157142Y-66738095D01*
X132204761Y-66690476D01*
X132252380Y-66595238D01*
X132252380Y-66404761D01*
X132204761Y-66309523D01*
X132157142Y-66261904D01*
X132061904Y-66214285D01*
X131823809Y-66214285D01*
X131728571Y-66261904D01*
X131680952Y-66309523D01*
X131633333Y-66404761D01*
X131633333Y-66595238D01*
X131680952Y-66690476D01*
X131728571Y-66738095D01*
X131823809Y-66785714D01*
X132252380Y-53938095D02*
X131252380Y-53938095D01*
X131252380Y-53700000D01*
X131300000Y-53557142D01*
X131395238Y-53461904D01*
X131490476Y-53414285D01*
X131680952Y-53366666D01*
X131823809Y-53366666D01*
X132014285Y-53414285D01*
X132109523Y-53461904D01*
X132204761Y-53557142D01*
X132252380Y-53700000D01*
X132252380Y-53938095D01*
X131252380Y-52461904D02*
X131252380Y-52938095D01*
X131728571Y-52985714D01*
X131680952Y-52938095D01*
X131633333Y-52842857D01*
X131633333Y-52604761D01*
X131680952Y-52509523D01*
X131728571Y-52461904D01*
X131823809Y-52414285D01*
X132061904Y-52414285D01*
X132157142Y-52461904D01*
X132204761Y-52509523D01*
X132252380Y-52604761D01*
X132252380Y-52842857D01*
X132204761Y-52938095D01*
X132157142Y-52985714D01*
X132252380Y-101988095D02*
X131252380Y-101988095D01*
X131252380Y-101750000D01*
X131300000Y-101607142D01*
X131395238Y-101511904D01*
X131490476Y-101464285D01*
X131680952Y-101416666D01*
X131823809Y-101416666D01*
X132014285Y-101464285D01*
X132109523Y-101511904D01*
X132204761Y-101607142D01*
X132252380Y-101750000D01*
X132252380Y-101988095D01*
X131585714Y-100559523D02*
X132252380Y-100559523D01*
X131204761Y-100797619D02*
X131919047Y-101035714D01*
X131919047Y-100416666D01*
X132252380Y-60838095D02*
X131252380Y-60838095D01*
X131252380Y-60600000D01*
X131300000Y-60457142D01*
X131395238Y-60361904D01*
X131490476Y-60314285D01*
X131680952Y-60266666D01*
X131823809Y-60266666D01*
X132014285Y-60314285D01*
X132109523Y-60361904D01*
X132204761Y-60457142D01*
X132252380Y-60600000D01*
X132252380Y-60838095D01*
X131252380Y-59933333D02*
X131252380Y-59314285D01*
X131633333Y-59647619D01*
X131633333Y-59504761D01*
X131680952Y-59409523D01*
X131728571Y-59361904D01*
X131823809Y-59314285D01*
X132061904Y-59314285D01*
X132157142Y-59361904D01*
X132204761Y-59409523D01*
X132252380Y-59504761D01*
X132252380Y-59790476D01*
X132204761Y-59885714D01*
X132157142Y-59933333D01*
X132252380Y-74588095D02*
X131252380Y-74588095D01*
X131252380Y-74350000D01*
X131300000Y-74207142D01*
X131395238Y-74111904D01*
X131490476Y-74064285D01*
X131680952Y-74016666D01*
X131823809Y-74016666D01*
X132014285Y-74064285D01*
X132109523Y-74111904D01*
X132204761Y-74207142D01*
X132252380Y-74350000D01*
X132252380Y-74588095D01*
X131347619Y-73635714D02*
X131300000Y-73588095D01*
X131252380Y-73492857D01*
X131252380Y-73254761D01*
X131300000Y-73159523D01*
X131347619Y-73111904D01*
X131442857Y-73064285D01*
X131538095Y-73064285D01*
X131680952Y-73111904D01*
X132252380Y-73683333D01*
X132252380Y-73064285D01*
X132252380Y-109738095D02*
X131252380Y-109738095D01*
X131252380Y-109500000D01*
X131300000Y-109357142D01*
X131395238Y-109261904D01*
X131490476Y-109214285D01*
X131680952Y-109166666D01*
X131823809Y-109166666D01*
X132014285Y-109214285D01*
X132109523Y-109261904D01*
X132204761Y-109357142D01*
X132252380Y-109500000D01*
X132252380Y-109738095D01*
X132252380Y-108214285D02*
X132252380Y-108785714D01*
X132252380Y-108500000D02*
X131252380Y-108500000D01*
X131395238Y-108595238D01*
X131490476Y-108690476D01*
X131538095Y-108785714D01*
X124973096Y-123677381D02*
X124973096Y-124486905D01*
X125020715Y-124582143D01*
X125068334Y-124629762D01*
X125163572Y-124677381D01*
X125354048Y-124677381D01*
X125449286Y-124629762D01*
X125496905Y-124582143D01*
X125544524Y-124486905D01*
X125544524Y-123677381D01*
X126449286Y-123677381D02*
X126258810Y-123677381D01*
X126163572Y-123725001D01*
X126115953Y-123772620D01*
X126020715Y-123915477D01*
X125973096Y-124105953D01*
X125973096Y-124486905D01*
X126020715Y-124582143D01*
X126068334Y-124629762D01*
X126163572Y-124677381D01*
X126354048Y-124677381D01*
X126449286Y-124629762D01*
X126496905Y-124582143D01*
X126544524Y-124486905D01*
X126544524Y-124248810D01*
X126496905Y-124153572D01*
X126449286Y-124105953D01*
X126354048Y-124058334D01*
X126163572Y-124058334D01*
X126068334Y-124105953D01*
X126020715Y-124153572D01*
X125973096Y-124248810D01*
X121204761Y-72047619D02*
X121109523Y-72000000D01*
X121014285Y-71904761D01*
X120871428Y-71761904D01*
X120776190Y-71714285D01*
X120680952Y-71714285D01*
X120728571Y-71952380D02*
X120633333Y-71904761D01*
X120538095Y-71809523D01*
X120490476Y-71619047D01*
X120490476Y-71285714D01*
X120538095Y-71095238D01*
X120633333Y-71000000D01*
X120728571Y-70952380D01*
X120919047Y-70952380D01*
X121014285Y-71000000D01*
X121109523Y-71095238D01*
X121157142Y-71285714D01*
X121157142Y-71619047D01*
X121109523Y-71809523D01*
X121014285Y-71904761D01*
X120919047Y-71952380D01*
X120728571Y-71952380D01*
X122014285Y-70952380D02*
X121823809Y-70952380D01*
X121728571Y-71000000D01*
X121680952Y-71047619D01*
X121585714Y-71190476D01*
X121538095Y-71380952D01*
X121538095Y-71761904D01*
X121585714Y-71857142D01*
X121633333Y-71904761D01*
X121728571Y-71952380D01*
X121919047Y-71952380D01*
X122014285Y-71904761D01*
X122061904Y-71857142D01*
X122109523Y-71761904D01*
X122109523Y-71523809D01*
X122061904Y-71428571D01*
X122014285Y-71380952D01*
X121919047Y-71333333D01*
X121728571Y-71333333D01*
X121633333Y-71380952D01*
X121585714Y-71428571D01*
X121538095Y-71523809D01*
X121204761Y-58247619D02*
X121109523Y-58200000D01*
X121014285Y-58104761D01*
X120871428Y-57961904D01*
X120776190Y-57914285D01*
X120680952Y-57914285D01*
X120728571Y-58152380D02*
X120633333Y-58104761D01*
X120538095Y-58009523D01*
X120490476Y-57819047D01*
X120490476Y-57485714D01*
X120538095Y-57295238D01*
X120633333Y-57200000D01*
X120728571Y-57152380D01*
X120919047Y-57152380D01*
X121014285Y-57200000D01*
X121109523Y-57295238D01*
X121157142Y-57485714D01*
X121157142Y-57819047D01*
X121109523Y-58009523D01*
X121014285Y-58104761D01*
X120919047Y-58152380D01*
X120728571Y-58152380D01*
X122061904Y-57152380D02*
X121585714Y-57152380D01*
X121538095Y-57628571D01*
X121585714Y-57580952D01*
X121680952Y-57533333D01*
X121919047Y-57533333D01*
X122014285Y-57580952D01*
X122061904Y-57628571D01*
X122109523Y-57723809D01*
X122109523Y-57961904D01*
X122061904Y-58057142D01*
X122014285Y-58104761D01*
X121919047Y-58152380D01*
X121680952Y-58152380D01*
X121585714Y-58104761D01*
X121538095Y-58057142D01*
X121204761Y-106297619D02*
X121109523Y-106250000D01*
X121014285Y-106154761D01*
X120871428Y-106011904D01*
X120776190Y-105964285D01*
X120680952Y-105964285D01*
X120728571Y-106202380D02*
X120633333Y-106154761D01*
X120538095Y-106059523D01*
X120490476Y-105869047D01*
X120490476Y-105535714D01*
X120538095Y-105345238D01*
X120633333Y-105250000D01*
X120728571Y-105202380D01*
X120919047Y-105202380D01*
X121014285Y-105250000D01*
X121109523Y-105345238D01*
X121157142Y-105535714D01*
X121157142Y-105869047D01*
X121109523Y-106059523D01*
X121014285Y-106154761D01*
X120919047Y-106202380D01*
X120728571Y-106202380D01*
X122014285Y-105535714D02*
X122014285Y-106202380D01*
X121776190Y-105154761D02*
X121538095Y-105869047D01*
X122157142Y-105869047D01*
X121204761Y-65147619D02*
X121109523Y-65100000D01*
X121014285Y-65004761D01*
X120871428Y-64861904D01*
X120776190Y-64814285D01*
X120680952Y-64814285D01*
X120728571Y-65052380D02*
X120633333Y-65004761D01*
X120538095Y-64909523D01*
X120490476Y-64719047D01*
X120490476Y-64385714D01*
X120538095Y-64195238D01*
X120633333Y-64100000D01*
X120728571Y-64052380D01*
X120919047Y-64052380D01*
X121014285Y-64100000D01*
X121109523Y-64195238D01*
X121157142Y-64385714D01*
X121157142Y-64719047D01*
X121109523Y-64909523D01*
X121014285Y-65004761D01*
X120919047Y-65052380D01*
X120728571Y-65052380D01*
X121490476Y-64052380D02*
X122109523Y-64052380D01*
X121776190Y-64433333D01*
X121919047Y-64433333D01*
X122014285Y-64480952D01*
X122061904Y-64528571D01*
X122109523Y-64623809D01*
X122109523Y-64861904D01*
X122061904Y-64957142D01*
X122014285Y-65004761D01*
X121919047Y-65052380D01*
X121633333Y-65052380D01*
X121538095Y-65004761D01*
X121490476Y-64957142D01*
X121204761Y-78897619D02*
X121109523Y-78850000D01*
X121014285Y-78754761D01*
X120871428Y-78611904D01*
X120776190Y-78564285D01*
X120680952Y-78564285D01*
X120728571Y-78802380D02*
X120633333Y-78754761D01*
X120538095Y-78659523D01*
X120490476Y-78469047D01*
X120490476Y-78135714D01*
X120538095Y-77945238D01*
X120633333Y-77850000D01*
X120728571Y-77802380D01*
X120919047Y-77802380D01*
X121014285Y-77850000D01*
X121109523Y-77945238D01*
X121157142Y-78135714D01*
X121157142Y-78469047D01*
X121109523Y-78659523D01*
X121014285Y-78754761D01*
X120919047Y-78802380D01*
X120728571Y-78802380D01*
X121538095Y-77897619D02*
X121585714Y-77850000D01*
X121680952Y-77802380D01*
X121919047Y-77802380D01*
X122014285Y-77850000D01*
X122061904Y-77897619D01*
X122109523Y-77992857D01*
X122109523Y-78088095D01*
X122061904Y-78230952D01*
X121490476Y-78802380D01*
X122109523Y-78802380D01*
X121204761Y-114047619D02*
X121109523Y-114000000D01*
X121014285Y-113904761D01*
X120871428Y-113761904D01*
X120776190Y-113714285D01*
X120680952Y-113714285D01*
X120728571Y-113952380D02*
X120633333Y-113904761D01*
X120538095Y-113809523D01*
X120490476Y-113619047D01*
X120490476Y-113285714D01*
X120538095Y-113095238D01*
X120633333Y-113000000D01*
X120728571Y-112952380D01*
X120919047Y-112952380D01*
X121014285Y-113000000D01*
X121109523Y-113095238D01*
X121157142Y-113285714D01*
X121157142Y-113619047D01*
X121109523Y-113809523D01*
X121014285Y-113904761D01*
X120919047Y-113952380D01*
X120728571Y-113952380D01*
X122109523Y-113952380D02*
X121538095Y-113952380D01*
X121823809Y-113952380D02*
X121823809Y-112952380D01*
X121728571Y-113095238D01*
X121633333Y-113190476D01*
X121538095Y-113238095D01*
X224402380Y-143339523D02*
X225402380Y-142672857D01*
X224402380Y-142672857D02*
X225402380Y-143339523D01*
X224735714Y-141863333D02*
X225402380Y-141863333D01*
X224354761Y-142101428D02*
X225069047Y-142339523D01*
X225069047Y-141720476D01*
X143860476Y-67632380D02*
X144527142Y-68632380D01*
X144527142Y-67632380D02*
X143860476Y-68632380D01*
X145431904Y-68632380D02*
X144860476Y-68632380D01*
X145146190Y-68632380D02*
X145146190Y-67632380D01*
X145050952Y-67775238D01*
X144955714Y-67870476D01*
X144860476Y-67918095D01*
X143736666Y-76852380D02*
X143736666Y-77566666D01*
X143689047Y-77709523D01*
X143593809Y-77804761D01*
X143450952Y-77852380D01*
X143355714Y-77852380D01*
X144212857Y-77852380D02*
X144212857Y-76852380D01*
X144593809Y-76852380D01*
X144689047Y-76900000D01*
X144736666Y-76947619D01*
X144784285Y-77042857D01*
X144784285Y-77185714D01*
X144736666Y-77280952D01*
X144689047Y-77328571D01*
X144593809Y-77376190D01*
X144212857Y-77376190D01*
X145165238Y-76947619D02*
X145212857Y-76900000D01*
X145308095Y-76852380D01*
X145546190Y-76852380D01*
X145641428Y-76900000D01*
X145689047Y-76947619D01*
X145736666Y-77042857D01*
X145736666Y-77138095D01*
X145689047Y-77280952D01*
X145117619Y-77852380D01*
X145736666Y-77852380D01*
X124776666Y-146982380D02*
X124776666Y-147696666D01*
X124729047Y-147839523D01*
X124633809Y-147934761D01*
X124490952Y-147982380D01*
X124395714Y-147982380D01*
X125252857Y-147982380D02*
X125252857Y-146982380D01*
X125633809Y-146982380D01*
X125729047Y-147030000D01*
X125776666Y-147077619D01*
X125824285Y-147172857D01*
X125824285Y-147315714D01*
X125776666Y-147410952D01*
X125729047Y-147458571D01*
X125633809Y-147506190D01*
X125252857Y-147506190D01*
X126776666Y-147982380D02*
X126205238Y-147982380D01*
X126490952Y-147982380D02*
X126490952Y-146982380D01*
X126395714Y-147125238D01*
X126300476Y-147220476D01*
X126205238Y-147268095D01*
X206940476Y-136552380D02*
X207607142Y-137552380D01*
X207607142Y-136552380D02*
X206940476Y-137552380D01*
X207892857Y-136552380D02*
X208511904Y-136552380D01*
X208178571Y-136933333D01*
X208321428Y-136933333D01*
X208416666Y-136980952D01*
X208464285Y-137028571D01*
X208511904Y-137123809D01*
X208511904Y-137361904D01*
X208464285Y-137457142D01*
X208416666Y-137504761D01*
X208321428Y-137552380D01*
X208035714Y-137552380D01*
X207940476Y-137504761D01*
X207892857Y-137457142D01*
X119133333Y-125647380D02*
X119800000Y-126647380D01*
X119800000Y-125647380D02*
X119133333Y-126647380D01*
X120038095Y-125647380D02*
X120609523Y-125647380D01*
X120323809Y-126647380D02*
X120323809Y-125647380D01*
X121371428Y-125980714D02*
X121371428Y-126647380D01*
X121133333Y-125599761D02*
X120895238Y-126314047D01*
X121514285Y-126314047D01*
X121800000Y-125647380D02*
X122466666Y-125647380D01*
X122038095Y-126647380D01*
X131267893Y-91572969D02*
X131200549Y-91572969D01*
X131065862Y-91505625D01*
X130998519Y-91438282D01*
X130931175Y-91303595D01*
X130931175Y-91168908D01*
X130964847Y-91067893D01*
X131065862Y-90899534D01*
X131166877Y-90798519D01*
X131335236Y-90697503D01*
X131436251Y-90663832D01*
X131570938Y-90663832D01*
X131705625Y-90731175D01*
X131772969Y-90798519D01*
X131840312Y-90933206D01*
X131840312Y-91000549D01*
X131873984Y-92313748D02*
X131469923Y-91909687D01*
X131671954Y-92111717D02*
X132379061Y-91404610D01*
X132210702Y-91438282D01*
X132076015Y-91438282D01*
X131975000Y-91404610D01*
X133187183Y-92212732D02*
X133052496Y-92078045D01*
X132951480Y-92044374D01*
X132884137Y-92044374D01*
X132715778Y-92078045D01*
X132547419Y-92179061D01*
X132278045Y-92448435D01*
X132244374Y-92549450D01*
X132244374Y-92616793D01*
X132278045Y-92717809D01*
X132412732Y-92852496D01*
X132513748Y-92886167D01*
X132581091Y-92886167D01*
X132682106Y-92852496D01*
X132850465Y-92684137D01*
X132884137Y-92583122D01*
X132884137Y-92515778D01*
X132850465Y-92414763D01*
X132715778Y-92280076D01*
X132614763Y-92246404D01*
X132547419Y-92246404D01*
X132446404Y-92280076D01*
X117830654Y-93549791D02*
X117830654Y-93617135D01*
X117763310Y-93751822D01*
X117695967Y-93819165D01*
X117561280Y-93886509D01*
X117426593Y-93886509D01*
X117325578Y-93852837D01*
X117157219Y-93751822D01*
X117056204Y-93650807D01*
X116955188Y-93482448D01*
X116921517Y-93381433D01*
X116921517Y-93246746D01*
X116988860Y-93112059D01*
X117056204Y-93044715D01*
X117190891Y-92977372D01*
X117258234Y-92977372D01*
X118571433Y-92943700D02*
X118167372Y-93347761D01*
X118369402Y-93145730D02*
X117662295Y-92438623D01*
X117695967Y-92606982D01*
X117695967Y-92741669D01*
X117662295Y-92842685D01*
X118706120Y-91866204D02*
X119177524Y-92337608D01*
X118268387Y-91765188D02*
X118605104Y-92438623D01*
X119042837Y-92000891D01*
X130867142Y-85757142D02*
X130819523Y-85804761D01*
X130676666Y-85852380D01*
X130581428Y-85852380D01*
X130438571Y-85804761D01*
X130343333Y-85709523D01*
X130295714Y-85614285D01*
X130248095Y-85423809D01*
X130248095Y-85280952D01*
X130295714Y-85090476D01*
X130343333Y-84995238D01*
X130438571Y-84900000D01*
X130581428Y-84852380D01*
X130676666Y-84852380D01*
X130819523Y-84900000D01*
X130867142Y-84947619D01*
X131819523Y-85852380D02*
X131248095Y-85852380D01*
X131533809Y-85852380D02*
X131533809Y-84852380D01*
X131438571Y-84995238D01*
X131343333Y-85090476D01*
X131248095Y-85138095D01*
X132200476Y-84947619D02*
X132248095Y-84900000D01*
X132343333Y-84852380D01*
X132581428Y-84852380D01*
X132676666Y-84900000D01*
X132724285Y-84947619D01*
X132771904Y-85042857D01*
X132771904Y-85138095D01*
X132724285Y-85280952D01*
X132152857Y-85852380D01*
X132771904Y-85852380D01*
X118692142Y-85937142D02*
X118644523Y-85984761D01*
X118501666Y-86032380D01*
X118406428Y-86032380D01*
X118263571Y-85984761D01*
X118168333Y-85889523D01*
X118120714Y-85794285D01*
X118073095Y-85603809D01*
X118073095Y-85460952D01*
X118120714Y-85270476D01*
X118168333Y-85175238D01*
X118263571Y-85080000D01*
X118406428Y-85032380D01*
X118501666Y-85032380D01*
X118644523Y-85080000D01*
X118692142Y-85127619D01*
X119644523Y-86032380D02*
X119073095Y-86032380D01*
X119358809Y-86032380D02*
X119358809Y-85032380D01*
X119263571Y-85175238D01*
X119168333Y-85270476D01*
X119073095Y-85318095D01*
X120263571Y-85032380D02*
X120358809Y-85032380D01*
X120454047Y-85080000D01*
X120501666Y-85127619D01*
X120549285Y-85222857D01*
X120596904Y-85413333D01*
X120596904Y-85651428D01*
X120549285Y-85841904D01*
X120501666Y-85937142D01*
X120454047Y-85984761D01*
X120358809Y-86032380D01*
X120263571Y-86032380D01*
X120168333Y-85984761D01*
X120120714Y-85937142D01*
X120073095Y-85841904D01*
X120025476Y-85651428D01*
X120025476Y-85413333D01*
X120073095Y-85222857D01*
X120120714Y-85127619D01*
X120168333Y-85080000D01*
X120263571Y-85032380D01*
X124763095Y-96152380D02*
X124763095Y-96961904D01*
X124810714Y-97057142D01*
X124858333Y-97104761D01*
X124953571Y-97152380D01*
X125144047Y-97152380D01*
X125239285Y-97104761D01*
X125286904Y-97057142D01*
X125334523Y-96961904D01*
X125334523Y-96152380D01*
X126239285Y-96485714D02*
X126239285Y-97152380D01*
X126001190Y-96104761D02*
X125763095Y-96819047D01*
X126382142Y-96819047D01*
X131633333Y-70857380D02*
X132300000Y-71857380D01*
X132300000Y-70857380D02*
X131633333Y-71857380D01*
X132538095Y-70857380D02*
X133109523Y-70857380D01*
X132823809Y-71857380D02*
X132823809Y-70857380D01*
X133919047Y-70857380D02*
X133442857Y-70857380D01*
X133395238Y-71333571D01*
X133442857Y-71285952D01*
X133538095Y-71238333D01*
X133776190Y-71238333D01*
X133871428Y-71285952D01*
X133919047Y-71333571D01*
X133966666Y-71428809D01*
X133966666Y-71666904D01*
X133919047Y-71762142D01*
X133871428Y-71809761D01*
X133776190Y-71857380D01*
X133538095Y-71857380D01*
X133442857Y-71809761D01*
X133395238Y-71762142D01*
X134442857Y-71857380D02*
X134633333Y-71857380D01*
X134728571Y-71809761D01*
X134776190Y-71762142D01*
X134871428Y-71619285D01*
X134919047Y-71428809D01*
X134919047Y-71047857D01*
X134871428Y-70952619D01*
X134823809Y-70905000D01*
X134728571Y-70857380D01*
X134538095Y-70857380D01*
X134442857Y-70905000D01*
X134395238Y-70952619D01*
X134347619Y-71047857D01*
X134347619Y-71285952D01*
X134395238Y-71381190D01*
X134442857Y-71428809D01*
X134538095Y-71476428D01*
X134728571Y-71476428D01*
X134823809Y-71428809D01*
X134871428Y-71381190D01*
X134919047Y-71285952D01*
X116133333Y-69857380D02*
X116800000Y-70857380D01*
X116800000Y-69857380D02*
X116133333Y-70857380D01*
X117038095Y-69857380D02*
X117609523Y-69857380D01*
X117323809Y-70857380D02*
X117323809Y-69857380D01*
X118419047Y-69857380D02*
X117942857Y-69857380D01*
X117895238Y-70333571D01*
X117942857Y-70285952D01*
X118038095Y-70238333D01*
X118276190Y-70238333D01*
X118371428Y-70285952D01*
X118419047Y-70333571D01*
X118466666Y-70428809D01*
X118466666Y-70666904D01*
X118419047Y-70762142D01*
X118371428Y-70809761D01*
X118276190Y-70857380D01*
X118038095Y-70857380D01*
X117942857Y-70809761D01*
X117895238Y-70762142D01*
X119038095Y-70285952D02*
X118942857Y-70238333D01*
X118895238Y-70190714D01*
X118847619Y-70095476D01*
X118847619Y-70047857D01*
X118895238Y-69952619D01*
X118942857Y-69905000D01*
X119038095Y-69857380D01*
X119228571Y-69857380D01*
X119323809Y-69905000D01*
X119371428Y-69952619D01*
X119419047Y-70047857D01*
X119419047Y-70095476D01*
X119371428Y-70190714D01*
X119323809Y-70238333D01*
X119228571Y-70285952D01*
X119038095Y-70285952D01*
X118942857Y-70333571D01*
X118895238Y-70381190D01*
X118847619Y-70476428D01*
X118847619Y-70666904D01*
X118895238Y-70762142D01*
X118942857Y-70809761D01*
X119038095Y-70857380D01*
X119228571Y-70857380D01*
X119323809Y-70809761D01*
X119371428Y-70762142D01*
X119419047Y-70666904D01*
X119419047Y-70476428D01*
X119371428Y-70381190D01*
X119323809Y-70333571D01*
X119228571Y-70285952D01*
X131633333Y-57057380D02*
X132300000Y-58057380D01*
X132300000Y-57057380D02*
X131633333Y-58057380D01*
X132538095Y-57057380D02*
X133109523Y-57057380D01*
X132823809Y-58057380D02*
X132823809Y-57057380D01*
X133919047Y-57057380D02*
X133442857Y-57057380D01*
X133395238Y-57533571D01*
X133442857Y-57485952D01*
X133538095Y-57438333D01*
X133776190Y-57438333D01*
X133871428Y-57485952D01*
X133919047Y-57533571D01*
X133966666Y-57628809D01*
X133966666Y-57866904D01*
X133919047Y-57962142D01*
X133871428Y-58009761D01*
X133776190Y-58057380D01*
X133538095Y-58057380D01*
X133442857Y-58009761D01*
X133395238Y-57962142D01*
X134300000Y-57057380D02*
X134966666Y-57057380D01*
X134538095Y-58057380D01*
X116133333Y-56057380D02*
X116800000Y-57057380D01*
X116800000Y-56057380D02*
X116133333Y-57057380D01*
X117038095Y-56057380D02*
X117609523Y-56057380D01*
X117323809Y-57057380D02*
X117323809Y-56057380D01*
X118419047Y-56057380D02*
X117942857Y-56057380D01*
X117895238Y-56533571D01*
X117942857Y-56485952D01*
X118038095Y-56438333D01*
X118276190Y-56438333D01*
X118371428Y-56485952D01*
X118419047Y-56533571D01*
X118466666Y-56628809D01*
X118466666Y-56866904D01*
X118419047Y-56962142D01*
X118371428Y-57009761D01*
X118276190Y-57057380D01*
X118038095Y-57057380D01*
X117942857Y-57009761D01*
X117895238Y-56962142D01*
X119323809Y-56057380D02*
X119133333Y-56057380D01*
X119038095Y-56105000D01*
X118990476Y-56152619D01*
X118895238Y-56295476D01*
X118847619Y-56485952D01*
X118847619Y-56866904D01*
X118895238Y-56962142D01*
X118942857Y-57009761D01*
X119038095Y-57057380D01*
X119228571Y-57057380D01*
X119323809Y-57009761D01*
X119371428Y-56962142D01*
X119419047Y-56866904D01*
X119419047Y-56628809D01*
X119371428Y-56533571D01*
X119323809Y-56485952D01*
X119228571Y-56438333D01*
X119038095Y-56438333D01*
X118942857Y-56485952D01*
X118895238Y-56533571D01*
X118847619Y-56628809D01*
X131633333Y-105107380D02*
X132300000Y-106107380D01*
X132300000Y-105107380D02*
X131633333Y-106107380D01*
X132538095Y-105107380D02*
X133109523Y-105107380D01*
X132823809Y-106107380D02*
X132823809Y-105107380D01*
X133919047Y-105107380D02*
X133442857Y-105107380D01*
X133395238Y-105583571D01*
X133442857Y-105535952D01*
X133538095Y-105488333D01*
X133776190Y-105488333D01*
X133871428Y-105535952D01*
X133919047Y-105583571D01*
X133966666Y-105678809D01*
X133966666Y-105916904D01*
X133919047Y-106012142D01*
X133871428Y-106059761D01*
X133776190Y-106107380D01*
X133538095Y-106107380D01*
X133442857Y-106059761D01*
X133395238Y-106012142D01*
X134871428Y-105107380D02*
X134395238Y-105107380D01*
X134347619Y-105583571D01*
X134395238Y-105535952D01*
X134490476Y-105488333D01*
X134728571Y-105488333D01*
X134823809Y-105535952D01*
X134871428Y-105583571D01*
X134919047Y-105678809D01*
X134919047Y-105916904D01*
X134871428Y-106012142D01*
X134823809Y-106059761D01*
X134728571Y-106107380D01*
X134490476Y-106107380D01*
X134395238Y-106059761D01*
X134347619Y-106012142D01*
X114133333Y-104107380D02*
X114800000Y-105107380D01*
X114800000Y-104107380D02*
X114133333Y-105107380D01*
X115038095Y-104107380D02*
X115609523Y-104107380D01*
X115323809Y-105107380D02*
X115323809Y-104107380D01*
X116419047Y-104107380D02*
X115942857Y-104107380D01*
X115895238Y-104583571D01*
X115942857Y-104535952D01*
X116038095Y-104488333D01*
X116276190Y-104488333D01*
X116371428Y-104535952D01*
X116419047Y-104583571D01*
X116466666Y-104678809D01*
X116466666Y-104916904D01*
X116419047Y-105012142D01*
X116371428Y-105059761D01*
X116276190Y-105107380D01*
X116038095Y-105107380D01*
X115942857Y-105059761D01*
X115895238Y-105012142D01*
X117323809Y-104440714D02*
X117323809Y-105107380D01*
X117085714Y-104059761D02*
X116847619Y-104774047D01*
X117466666Y-104774047D01*
X131633333Y-63957380D02*
X132300000Y-64957380D01*
X132300000Y-63957380D02*
X131633333Y-64957380D01*
X132538095Y-63957380D02*
X133109523Y-63957380D01*
X132823809Y-64957380D02*
X132823809Y-63957380D01*
X133919047Y-63957380D02*
X133442857Y-63957380D01*
X133395238Y-64433571D01*
X133442857Y-64385952D01*
X133538095Y-64338333D01*
X133776190Y-64338333D01*
X133871428Y-64385952D01*
X133919047Y-64433571D01*
X133966666Y-64528809D01*
X133966666Y-64766904D01*
X133919047Y-64862142D01*
X133871428Y-64909761D01*
X133776190Y-64957380D01*
X133538095Y-64957380D01*
X133442857Y-64909761D01*
X133395238Y-64862142D01*
X134300000Y-63957380D02*
X134919047Y-63957380D01*
X134585714Y-64338333D01*
X134728571Y-64338333D01*
X134823809Y-64385952D01*
X134871428Y-64433571D01*
X134919047Y-64528809D01*
X134919047Y-64766904D01*
X134871428Y-64862142D01*
X134823809Y-64909761D01*
X134728571Y-64957380D01*
X134442857Y-64957380D01*
X134347619Y-64909761D01*
X134300000Y-64862142D01*
X116133333Y-62957380D02*
X116800000Y-63957380D01*
X116800000Y-62957380D02*
X116133333Y-63957380D01*
X117038095Y-62957380D02*
X117609523Y-62957380D01*
X117323809Y-63957380D02*
X117323809Y-62957380D01*
X118419047Y-62957380D02*
X117942857Y-62957380D01*
X117895238Y-63433571D01*
X117942857Y-63385952D01*
X118038095Y-63338333D01*
X118276190Y-63338333D01*
X118371428Y-63385952D01*
X118419047Y-63433571D01*
X118466666Y-63528809D01*
X118466666Y-63766904D01*
X118419047Y-63862142D01*
X118371428Y-63909761D01*
X118276190Y-63957380D01*
X118038095Y-63957380D01*
X117942857Y-63909761D01*
X117895238Y-63862142D01*
X118847619Y-63052619D02*
X118895238Y-63005000D01*
X118990476Y-62957380D01*
X119228571Y-62957380D01*
X119323809Y-63005000D01*
X119371428Y-63052619D01*
X119419047Y-63147857D01*
X119419047Y-63243095D01*
X119371428Y-63385952D01*
X118800000Y-63957380D01*
X119419047Y-63957380D01*
X131633333Y-77802380D02*
X132300000Y-78802380D01*
X132300000Y-77802380D02*
X131633333Y-78802380D01*
X132538095Y-77802380D02*
X133109523Y-77802380D01*
X132823809Y-78802380D02*
X132823809Y-77802380D01*
X133919047Y-77802380D02*
X133442857Y-77802380D01*
X133395238Y-78278571D01*
X133442857Y-78230952D01*
X133538095Y-78183333D01*
X133776190Y-78183333D01*
X133871428Y-78230952D01*
X133919047Y-78278571D01*
X133966666Y-78373809D01*
X133966666Y-78611904D01*
X133919047Y-78707142D01*
X133871428Y-78754761D01*
X133776190Y-78802380D01*
X133538095Y-78802380D01*
X133442857Y-78754761D01*
X133395238Y-78707142D01*
X134919047Y-78802380D02*
X134347619Y-78802380D01*
X134633333Y-78802380D02*
X134633333Y-77802380D01*
X134538095Y-77945238D01*
X134442857Y-78040476D01*
X134347619Y-78088095D01*
X116133333Y-76707380D02*
X116800000Y-77707380D01*
X116800000Y-76707380D02*
X116133333Y-77707380D01*
X117038095Y-76707380D02*
X117609523Y-76707380D01*
X117323809Y-77707380D02*
X117323809Y-76707380D01*
X118419047Y-76707380D02*
X117942857Y-76707380D01*
X117895238Y-77183571D01*
X117942857Y-77135952D01*
X118038095Y-77088333D01*
X118276190Y-77088333D01*
X118371428Y-77135952D01*
X118419047Y-77183571D01*
X118466666Y-77278809D01*
X118466666Y-77516904D01*
X118419047Y-77612142D01*
X118371428Y-77659761D01*
X118276190Y-77707380D01*
X118038095Y-77707380D01*
X117942857Y-77659761D01*
X117895238Y-77612142D01*
X119085714Y-76707380D02*
X119180952Y-76707380D01*
X119276190Y-76755000D01*
X119323809Y-76802619D01*
X119371428Y-76897857D01*
X119419047Y-77088333D01*
X119419047Y-77326428D01*
X119371428Y-77516904D01*
X119323809Y-77612142D01*
X119276190Y-77659761D01*
X119180952Y-77707380D01*
X119085714Y-77707380D01*
X118990476Y-77659761D01*
X118942857Y-77612142D01*
X118895238Y-77516904D01*
X118847619Y-77326428D01*
X118847619Y-77088333D01*
X118895238Y-76897857D01*
X118942857Y-76802619D01*
X118990476Y-76755000D01*
X119085714Y-76707380D01*
X131633333Y-112857380D02*
X132300000Y-113857380D01*
X132300000Y-112857380D02*
X131633333Y-113857380D01*
X132538095Y-112857380D02*
X133109523Y-112857380D01*
X132823809Y-113857380D02*
X132823809Y-112857380D01*
X133871428Y-113190714D02*
X133871428Y-113857380D01*
X133633333Y-112809761D02*
X133395238Y-113524047D01*
X134014285Y-113524047D01*
X134442857Y-113857380D02*
X134633333Y-113857380D01*
X134728571Y-113809761D01*
X134776190Y-113762142D01*
X134871428Y-113619285D01*
X134919047Y-113428809D01*
X134919047Y-113047857D01*
X134871428Y-112952619D01*
X134823809Y-112905000D01*
X134728571Y-112857380D01*
X134538095Y-112857380D01*
X134442857Y-112905000D01*
X134395238Y-112952619D01*
X134347619Y-113047857D01*
X134347619Y-113285952D01*
X134395238Y-113381190D01*
X134442857Y-113428809D01*
X134538095Y-113476428D01*
X134728571Y-113476428D01*
X134823809Y-113428809D01*
X134871428Y-113381190D01*
X134919047Y-113285952D01*
X116133333Y-111857380D02*
X116800000Y-112857380D01*
X116800000Y-111857380D02*
X116133333Y-112857380D01*
X117038095Y-111857380D02*
X117609523Y-111857380D01*
X117323809Y-112857380D02*
X117323809Y-111857380D01*
X118371428Y-112190714D02*
X118371428Y-112857380D01*
X118133333Y-111809761D02*
X117895238Y-112524047D01*
X118514285Y-112524047D01*
X119038095Y-112285952D02*
X118942857Y-112238333D01*
X118895238Y-112190714D01*
X118847619Y-112095476D01*
X118847619Y-112047857D01*
X118895238Y-111952619D01*
X118942857Y-111905000D01*
X119038095Y-111857380D01*
X119228571Y-111857380D01*
X119323809Y-111905000D01*
X119371428Y-111952619D01*
X119419047Y-112047857D01*
X119419047Y-112095476D01*
X119371428Y-112190714D01*
X119323809Y-112238333D01*
X119228571Y-112285952D01*
X119038095Y-112285952D01*
X118942857Y-112333571D01*
X118895238Y-112381190D01*
X118847619Y-112476428D01*
X118847619Y-112666904D01*
X118895238Y-112762142D01*
X118942857Y-112809761D01*
X119038095Y-112857380D01*
X119228571Y-112857380D01*
X119323809Y-112809761D01*
X119371428Y-112762142D01*
X119419047Y-112666904D01*
X119419047Y-112476428D01*
X119371428Y-112381190D01*
X119323809Y-112333571D01*
X119228571Y-112285952D01*
X136633333Y-90952380D02*
X137300000Y-91952380D01*
X137300000Y-90952380D02*
X136633333Y-91952380D01*
X137538095Y-90952380D02*
X138109523Y-90952380D01*
X137823809Y-91952380D02*
X137823809Y-90952380D01*
X138966666Y-91952380D02*
X138395238Y-91952380D01*
X138680952Y-91952380D02*
X138680952Y-90952380D01*
X138585714Y-91095238D01*
X138490476Y-91190476D01*
X138395238Y-91238095D01*
X139823809Y-90952380D02*
X139633333Y-90952380D01*
X139538095Y-91000000D01*
X139490476Y-91047619D01*
X139395238Y-91190476D01*
X139347619Y-91380952D01*
X139347619Y-91761904D01*
X139395238Y-91857142D01*
X139442857Y-91904761D01*
X139538095Y-91952380D01*
X139728571Y-91952380D01*
X139823809Y-91904761D01*
X139871428Y-91857142D01*
X139919047Y-91761904D01*
X139919047Y-91523809D01*
X139871428Y-91428571D01*
X139823809Y-91380952D01*
X139728571Y-91333333D01*
X139538095Y-91333333D01*
X139442857Y-91380952D01*
X139395238Y-91428571D01*
X139347619Y-91523809D01*
X111133333Y-90952380D02*
X111800000Y-91952380D01*
X111800000Y-90952380D02*
X111133333Y-91952380D01*
X112038095Y-90952380D02*
X112609523Y-90952380D01*
X112323809Y-91952380D02*
X112323809Y-90952380D01*
X113466666Y-91952380D02*
X112895238Y-91952380D01*
X113180952Y-91952380D02*
X113180952Y-90952380D01*
X113085714Y-91095238D01*
X112990476Y-91190476D01*
X112895238Y-91238095D01*
X114371428Y-90952380D02*
X113895238Y-90952380D01*
X113847619Y-91428571D01*
X113895238Y-91380952D01*
X113990476Y-91333333D01*
X114228571Y-91333333D01*
X114323809Y-91380952D01*
X114371428Y-91428571D01*
X114419047Y-91523809D01*
X114419047Y-91761904D01*
X114371428Y-91857142D01*
X114323809Y-91904761D01*
X114228571Y-91952380D01*
X113990476Y-91952380D01*
X113895238Y-91904761D01*
X113847619Y-91857142D01*
X136633333Y-89452380D02*
X137300000Y-90452380D01*
X137300000Y-89452380D02*
X136633333Y-90452380D01*
X137538095Y-89452380D02*
X138109523Y-89452380D01*
X137823809Y-90452380D02*
X137823809Y-89452380D01*
X138966666Y-90452380D02*
X138395238Y-90452380D01*
X138680952Y-90452380D02*
X138680952Y-89452380D01*
X138585714Y-89595238D01*
X138490476Y-89690476D01*
X138395238Y-89738095D01*
X139823809Y-89785714D02*
X139823809Y-90452380D01*
X139585714Y-89404761D02*
X139347619Y-90119047D01*
X139966666Y-90119047D01*
X111133333Y-89452380D02*
X111800000Y-90452380D01*
X111800000Y-89452380D02*
X111133333Y-90452380D01*
X112038095Y-89452380D02*
X112609523Y-89452380D01*
X112323809Y-90452380D02*
X112323809Y-89452380D01*
X113466666Y-90452380D02*
X112895238Y-90452380D01*
X113180952Y-90452380D02*
X113180952Y-89452380D01*
X113085714Y-89595238D01*
X112990476Y-89690476D01*
X112895238Y-89738095D01*
X113800000Y-89452380D02*
X114419047Y-89452380D01*
X114085714Y-89833333D01*
X114228571Y-89833333D01*
X114323809Y-89880952D01*
X114371428Y-89928571D01*
X114419047Y-90023809D01*
X114419047Y-90261904D01*
X114371428Y-90357142D01*
X114323809Y-90404761D01*
X114228571Y-90452380D01*
X113942857Y-90452380D01*
X113847619Y-90404761D01*
X113800000Y-90357142D01*
X136633333Y-87952380D02*
X137300000Y-88952380D01*
X137300000Y-87952380D02*
X136633333Y-88952380D01*
X137538095Y-87952380D02*
X138109523Y-87952380D01*
X137823809Y-88952380D02*
X137823809Y-87952380D01*
X138966666Y-88952380D02*
X138395238Y-88952380D01*
X138680952Y-88952380D02*
X138680952Y-87952380D01*
X138585714Y-88095238D01*
X138490476Y-88190476D01*
X138395238Y-88238095D01*
X139347619Y-88047619D02*
X139395238Y-88000000D01*
X139490476Y-87952380D01*
X139728571Y-87952380D01*
X139823809Y-88000000D01*
X139871428Y-88047619D01*
X139919047Y-88142857D01*
X139919047Y-88238095D01*
X139871428Y-88380952D01*
X139300000Y-88952380D01*
X139919047Y-88952380D01*
X111133333Y-87952380D02*
X111800000Y-88952380D01*
X111800000Y-87952380D02*
X111133333Y-88952380D01*
X112038095Y-87952380D02*
X112609523Y-87952380D01*
X112323809Y-88952380D02*
X112323809Y-87952380D01*
X113466666Y-88952380D02*
X112895238Y-88952380D01*
X113180952Y-88952380D02*
X113180952Y-87952380D01*
X113085714Y-88095238D01*
X112990476Y-88190476D01*
X112895238Y-88238095D01*
X114419047Y-88952380D02*
X113847619Y-88952380D01*
X114133333Y-88952380D02*
X114133333Y-87952380D01*
X114038095Y-88095238D01*
X113942857Y-88190476D01*
X113847619Y-88238095D01*
X136633333Y-86452380D02*
X137300000Y-87452380D01*
X137300000Y-86452380D02*
X136633333Y-87452380D01*
X137538095Y-86452380D02*
X138109523Y-86452380D01*
X137823809Y-87452380D02*
X137823809Y-86452380D01*
X138966666Y-87452380D02*
X138395238Y-87452380D01*
X138680952Y-87452380D02*
X138680952Y-86452380D01*
X138585714Y-86595238D01*
X138490476Y-86690476D01*
X138395238Y-86738095D01*
X139585714Y-86452380D02*
X139680952Y-86452380D01*
X139776190Y-86500000D01*
X139823809Y-86547619D01*
X139871428Y-86642857D01*
X139919047Y-86833333D01*
X139919047Y-87071428D01*
X139871428Y-87261904D01*
X139823809Y-87357142D01*
X139776190Y-87404761D01*
X139680952Y-87452380D01*
X139585714Y-87452380D01*
X139490476Y-87404761D01*
X139442857Y-87357142D01*
X139395238Y-87261904D01*
X139347619Y-87071428D01*
X139347619Y-86833333D01*
X139395238Y-86642857D01*
X139442857Y-86547619D01*
X139490476Y-86500000D01*
X139585714Y-86452380D01*
X111609523Y-86452380D02*
X112276190Y-87452380D01*
X112276190Y-86452380D02*
X111609523Y-87452380D01*
X112514285Y-86452380D02*
X113085714Y-86452380D01*
X112800000Y-87452380D02*
X112800000Y-86452380D01*
X113466666Y-87452380D02*
X113657142Y-87452380D01*
X113752380Y-87404761D01*
X113800000Y-87357142D01*
X113895238Y-87214285D01*
X113942857Y-87023809D01*
X113942857Y-86642857D01*
X113895238Y-86547619D01*
X113847619Y-86500000D01*
X113752380Y-86452380D01*
X113561904Y-86452380D01*
X113466666Y-86500000D01*
X113419047Y-86547619D01*
X113371428Y-86642857D01*
X113371428Y-86880952D01*
X113419047Y-86976190D01*
X113466666Y-87023809D01*
X113561904Y-87071428D01*
X113752380Y-87071428D01*
X113847619Y-87023809D01*
X113895238Y-86976190D01*
X113942857Y-86880952D01*
X137109523Y-84952380D02*
X137776190Y-85952380D01*
X137776190Y-84952380D02*
X137109523Y-85952380D01*
X138014285Y-84952380D02*
X138585714Y-84952380D01*
X138300000Y-85952380D02*
X138300000Y-84952380D01*
X139061904Y-85380952D02*
X138966666Y-85333333D01*
X138919047Y-85285714D01*
X138871428Y-85190476D01*
X138871428Y-85142857D01*
X138919047Y-85047619D01*
X138966666Y-85000000D01*
X139061904Y-84952380D01*
X139252380Y-84952380D01*
X139347619Y-85000000D01*
X139395238Y-85047619D01*
X139442857Y-85142857D01*
X139442857Y-85190476D01*
X139395238Y-85285714D01*
X139347619Y-85333333D01*
X139252380Y-85380952D01*
X139061904Y-85380952D01*
X138966666Y-85428571D01*
X138919047Y-85476190D01*
X138871428Y-85571428D01*
X138871428Y-85761904D01*
X138919047Y-85857142D01*
X138966666Y-85904761D01*
X139061904Y-85952380D01*
X139252380Y-85952380D01*
X139347619Y-85904761D01*
X139395238Y-85857142D01*
X139442857Y-85761904D01*
X139442857Y-85571428D01*
X139395238Y-85476190D01*
X139347619Y-85428571D01*
X139252380Y-85380952D01*
X111609523Y-84952380D02*
X112276190Y-85952380D01*
X112276190Y-84952380D02*
X111609523Y-85952380D01*
X112514285Y-84952380D02*
X113085714Y-84952380D01*
X112800000Y-85952380D02*
X112800000Y-84952380D01*
X113323809Y-84952380D02*
X113990476Y-84952380D01*
X113561904Y-85952380D01*
X137109523Y-83452380D02*
X137776190Y-84452380D01*
X137776190Y-83452380D02*
X137109523Y-84452380D01*
X138014285Y-83452380D02*
X138585714Y-83452380D01*
X138300000Y-84452380D02*
X138300000Y-83452380D01*
X139347619Y-83452380D02*
X139157142Y-83452380D01*
X139061904Y-83500000D01*
X139014285Y-83547619D01*
X138919047Y-83690476D01*
X138871428Y-83880952D01*
X138871428Y-84261904D01*
X138919047Y-84357142D01*
X138966666Y-84404761D01*
X139061904Y-84452380D01*
X139252380Y-84452380D01*
X139347619Y-84404761D01*
X139395238Y-84357142D01*
X139442857Y-84261904D01*
X139442857Y-84023809D01*
X139395238Y-83928571D01*
X139347619Y-83880952D01*
X139252380Y-83833333D01*
X139061904Y-83833333D01*
X138966666Y-83880952D01*
X138919047Y-83928571D01*
X138871428Y-84023809D01*
X111859523Y-83452380D02*
X112526190Y-84452380D01*
X112526190Y-83452380D02*
X111859523Y-84452380D01*
X112764285Y-83452380D02*
X113335714Y-83452380D01*
X113050000Y-84452380D02*
X113050000Y-83452380D01*
X114145238Y-83452380D02*
X113669047Y-83452380D01*
X113621428Y-83928571D01*
X113669047Y-83880952D01*
X113764285Y-83833333D01*
X114002380Y-83833333D01*
X114097619Y-83880952D01*
X114145238Y-83928571D01*
X114192857Y-84023809D01*
X114192857Y-84261904D01*
X114145238Y-84357142D01*
X114097619Y-84404761D01*
X114002380Y-84452380D01*
X113764285Y-84452380D01*
X113669047Y-84404761D01*
X113621428Y-84357142D01*
X136609523Y-81952380D02*
X137276190Y-82952380D01*
X137276190Y-81952380D02*
X136609523Y-82952380D01*
X137514285Y-81952380D02*
X138085714Y-81952380D01*
X137800000Y-82952380D02*
X137800000Y-81952380D01*
X138847619Y-82285714D02*
X138847619Y-82952380D01*
X138609523Y-81904761D02*
X138371428Y-82619047D01*
X138990476Y-82619047D01*
X111859523Y-81952380D02*
X112526190Y-82952380D01*
X112526190Y-81952380D02*
X111859523Y-82952380D01*
X112764285Y-81952380D02*
X113335714Y-81952380D01*
X113050000Y-82952380D02*
X113050000Y-81952380D01*
X113573809Y-81952380D02*
X114192857Y-81952380D01*
X113859523Y-82333333D01*
X114002380Y-82333333D01*
X114097619Y-82380952D01*
X114145238Y-82428571D01*
X114192857Y-82523809D01*
X114192857Y-82761904D01*
X114145238Y-82857142D01*
X114097619Y-82904761D01*
X114002380Y-82952380D01*
X113716666Y-82952380D01*
X113621428Y-82904761D01*
X113573809Y-82857142D01*
X136609523Y-80452380D02*
X137276190Y-81452380D01*
X137276190Y-80452380D02*
X136609523Y-81452380D01*
X137514285Y-80452380D02*
X138085714Y-80452380D01*
X137800000Y-81452380D02*
X137800000Y-80452380D01*
X138371428Y-80547619D02*
X138419047Y-80500000D01*
X138514285Y-80452380D01*
X138752380Y-80452380D01*
X138847619Y-80500000D01*
X138895238Y-80547619D01*
X138942857Y-80642857D01*
X138942857Y-80738095D01*
X138895238Y-80880952D01*
X138323809Y-81452380D01*
X138942857Y-81452380D01*
X111859523Y-80452380D02*
X112526190Y-81452380D01*
X112526190Y-80452380D02*
X111859523Y-81452380D01*
X112764285Y-80452380D02*
X113335714Y-80452380D01*
X113050000Y-81452380D02*
X113050000Y-80452380D01*
X114192857Y-81452380D02*
X113621428Y-81452380D01*
X113907142Y-81452380D02*
X113907142Y-80452380D01*
X113811904Y-80595238D01*
X113716666Y-80690476D01*
X113621428Y-80738095D01*
X241202380Y-130809523D02*
X242202380Y-130142857D01*
X241202380Y-130142857D02*
X242202380Y-130809523D01*
X241202380Y-129285714D02*
X241202380Y-129761904D01*
X241678571Y-129809523D01*
X241630952Y-129761904D01*
X241583333Y-129666666D01*
X241583333Y-129428571D01*
X241630952Y-129333333D01*
X241678571Y-129285714D01*
X241773809Y-129238095D01*
X242011904Y-129238095D01*
X242107142Y-129285714D01*
X242154761Y-129333333D01*
X242202380Y-129428571D01*
X242202380Y-129666666D01*
X242154761Y-129761904D01*
X242107142Y-129809523D01*
X102740476Y-113702380D02*
X103407142Y-114702380D01*
X103407142Y-113702380D02*
X102740476Y-114702380D01*
X103740476Y-113797619D02*
X103788095Y-113750000D01*
X103883333Y-113702380D01*
X104121428Y-113702380D01*
X104216666Y-113750000D01*
X104264285Y-113797619D01*
X104311904Y-113892857D01*
X104311904Y-113988095D01*
X104264285Y-114130952D01*
X103692857Y-114702380D01*
X104311904Y-114702380D01*
X105404285Y-147702619D02*
X105451904Y-147655000D01*
X105547142Y-147607380D01*
X105785238Y-147607380D01*
X105880476Y-147655000D01*
X105928095Y-147702619D01*
X105975714Y-147797857D01*
X105975714Y-147893095D01*
X105928095Y-148035952D01*
X105356666Y-148607380D01*
X105975714Y-148607380D01*
X109214285Y-114031714D02*
X109214285Y-114698380D01*
X108976190Y-113650761D02*
X108738095Y-114365047D01*
X109357142Y-114365047D01*
X109785714Y-114698380D02*
X109976190Y-114698380D01*
X110071428Y-114650761D01*
X110119047Y-114603142D01*
X110214285Y-114460285D01*
X110261904Y-114269809D01*
X110261904Y-113888857D01*
X110214285Y-113793619D01*
X110166666Y-113746000D01*
X110071428Y-113698380D01*
X109880952Y-113698380D01*
X109785714Y-113746000D01*
X109738095Y-113793619D01*
X109690476Y-113888857D01*
X109690476Y-114126952D01*
X109738095Y-114222190D01*
X109785714Y-114269809D01*
X109880952Y-114317428D01*
X110071428Y-114317428D01*
X110166666Y-114269809D01*
X110214285Y-114222190D01*
X110261904Y-114126952D01*
X109261904Y-111793380D02*
X108785714Y-111793380D01*
X108738095Y-112269571D01*
X108785714Y-112221952D01*
X108880952Y-112174333D01*
X109119047Y-112174333D01*
X109214285Y-112221952D01*
X109261904Y-112269571D01*
X109309523Y-112364809D01*
X109309523Y-112602904D01*
X109261904Y-112698142D01*
X109214285Y-112745761D01*
X109119047Y-112793380D01*
X108880952Y-112793380D01*
X108785714Y-112745761D01*
X108738095Y-112698142D01*
X110261904Y-112793380D02*
X109690476Y-112793380D01*
X109976190Y-112793380D02*
X109976190Y-111793380D01*
X109880952Y-111936238D01*
X109785714Y-112031476D01*
X109690476Y-112079095D01*
X108198333Y-48277380D02*
X107626904Y-48277380D01*
X107912619Y-48277380D02*
X107912619Y-47277380D01*
X107817380Y-47420238D01*
X107722142Y-47515476D01*
X107626904Y-47563095D01*
X109055476Y-47610714D02*
X109055476Y-48277380D01*
X108817380Y-47229761D02*
X108579285Y-47944047D01*
X109198333Y-47944047D01*
X109626904Y-48277380D02*
X109817380Y-48277380D01*
X109912619Y-48229761D01*
X109960238Y-48182142D01*
X110055476Y-48039285D01*
X110103095Y-47848809D01*
X110103095Y-47467857D01*
X110055476Y-47372619D01*
X110007857Y-47325000D01*
X109912619Y-47277380D01*
X109722142Y-47277380D01*
X109626904Y-47325000D01*
X109579285Y-47372619D01*
X109531666Y-47467857D01*
X109531666Y-47705952D01*
X109579285Y-47801190D01*
X109626904Y-47848809D01*
X109722142Y-47896428D01*
X109912619Y-47896428D01*
X110007857Y-47848809D01*
X110055476Y-47801190D01*
X110103095Y-47705952D01*
X109785714Y-148607380D02*
X109214285Y-148607380D01*
X109500000Y-148607380D02*
X109500000Y-147607380D01*
X109404761Y-147750238D01*
X109309523Y-147845476D01*
X109214285Y-147893095D01*
X224488095Y-123502380D02*
X224488095Y-124311904D01*
X224535714Y-124407142D01*
X224583333Y-124454761D01*
X224678571Y-124502380D01*
X224869047Y-124502380D01*
X224964285Y-124454761D01*
X225011904Y-124407142D01*
X225059523Y-124311904D01*
X225059523Y-123502380D01*
X225440476Y-123502380D02*
X226107142Y-123502380D01*
X225678571Y-124502380D01*
X218672380Y-129917857D02*
X218196190Y-130251190D01*
X218672380Y-130489285D02*
X217672380Y-130489285D01*
X217672380Y-130108333D01*
X217720000Y-130013095D01*
X217767619Y-129965476D01*
X217862857Y-129917857D01*
X218005714Y-129917857D01*
X218100952Y-129965476D01*
X218148571Y-130013095D01*
X218196190Y-130108333D01*
X218196190Y-130489285D01*
X217767619Y-129536904D02*
X217720000Y-129489285D01*
X217672380Y-129394047D01*
X217672380Y-129155952D01*
X217720000Y-129060714D01*
X217767619Y-129013095D01*
X217862857Y-128965476D01*
X217958095Y-128965476D01*
X218100952Y-129013095D01*
X218672380Y-129584523D01*
X218672380Y-128965476D01*
X217672380Y-128060714D02*
X217672380Y-128536904D01*
X218148571Y-128584523D01*
X218100952Y-128536904D01*
X218053333Y-128441666D01*
X218053333Y-128203571D01*
X218100952Y-128108333D01*
X218148571Y-128060714D01*
X218243809Y-128013095D01*
X218481904Y-128013095D01*
X218577142Y-128060714D01*
X218624761Y-128108333D01*
X218672380Y-128203571D01*
X218672380Y-128441666D01*
X218624761Y-128536904D01*
X218577142Y-128584523D01*
X236182142Y-119617381D02*
X235848809Y-119141191D01*
X235610714Y-119617381D02*
X235610714Y-118617381D01*
X235991666Y-118617381D01*
X236086904Y-118665001D01*
X236134523Y-118712620D01*
X236182142Y-118807858D01*
X236182142Y-118950715D01*
X236134523Y-119045953D01*
X236086904Y-119093572D01*
X235991666Y-119141191D01*
X235610714Y-119141191D01*
X236563095Y-118712620D02*
X236610714Y-118665001D01*
X236705952Y-118617381D01*
X236944047Y-118617381D01*
X237039285Y-118665001D01*
X237086904Y-118712620D01*
X237134523Y-118807858D01*
X237134523Y-118903096D01*
X237086904Y-119045953D01*
X236515476Y-119617381D01*
X237134523Y-119617381D01*
X237991666Y-118950715D02*
X237991666Y-119617381D01*
X237753571Y-118569762D02*
X237515476Y-119284048D01*
X238134523Y-119284048D01*
X224207380Y-135692857D02*
X223731190Y-136026190D01*
X224207380Y-136264285D02*
X223207380Y-136264285D01*
X223207380Y-135883333D01*
X223255000Y-135788095D01*
X223302619Y-135740476D01*
X223397857Y-135692857D01*
X223540714Y-135692857D01*
X223635952Y-135740476D01*
X223683571Y-135788095D01*
X223731190Y-135883333D01*
X223731190Y-136264285D01*
X223302619Y-135311904D02*
X223255000Y-135264285D01*
X223207380Y-135169047D01*
X223207380Y-134930952D01*
X223255000Y-134835714D01*
X223302619Y-134788095D01*
X223397857Y-134740476D01*
X223493095Y-134740476D01*
X223635952Y-134788095D01*
X224207380Y-135359523D01*
X224207380Y-134740476D01*
X223207380Y-134407142D02*
X223207380Y-133788095D01*
X223588333Y-134121428D01*
X223588333Y-133978571D01*
X223635952Y-133883333D01*
X223683571Y-133835714D01*
X223778809Y-133788095D01*
X224016904Y-133788095D01*
X224112142Y-133835714D01*
X224159761Y-133883333D01*
X224207380Y-133978571D01*
X224207380Y-134264285D01*
X224159761Y-134359523D01*
X224112142Y-134407142D01*
X215797380Y-129917857D02*
X215321190Y-130251190D01*
X215797380Y-130489285D02*
X214797380Y-130489285D01*
X214797380Y-130108333D01*
X214845000Y-130013095D01*
X214892619Y-129965476D01*
X214987857Y-129917857D01*
X215130714Y-129917857D01*
X215225952Y-129965476D01*
X215273571Y-130013095D01*
X215321190Y-130108333D01*
X215321190Y-130489285D01*
X214892619Y-129536904D02*
X214845000Y-129489285D01*
X214797380Y-129394047D01*
X214797380Y-129155952D01*
X214845000Y-129060714D01*
X214892619Y-129013095D01*
X214987857Y-128965476D01*
X215083095Y-128965476D01*
X215225952Y-129013095D01*
X215797380Y-129584523D01*
X215797380Y-128965476D01*
X214892619Y-128584523D02*
X214845000Y-128536904D01*
X214797380Y-128441666D01*
X214797380Y-128203571D01*
X214845000Y-128108333D01*
X214892619Y-128060714D01*
X214987857Y-128013095D01*
X215083095Y-128013095D01*
X215225952Y-128060714D01*
X215797380Y-128632142D01*
X215797380Y-128013095D01*
X218197142Y-127482380D02*
X217863809Y-127006190D01*
X217625714Y-127482380D02*
X217625714Y-126482380D01*
X218006666Y-126482380D01*
X218101904Y-126530000D01*
X218149523Y-126577619D01*
X218197142Y-126672857D01*
X218197142Y-126815714D01*
X218149523Y-126910952D01*
X218101904Y-126958571D01*
X218006666Y-127006190D01*
X217625714Y-127006190D01*
X218578095Y-126577619D02*
X218625714Y-126530000D01*
X218720952Y-126482380D01*
X218959047Y-126482380D01*
X219054285Y-126530000D01*
X219101904Y-126577619D01*
X219149523Y-126672857D01*
X219149523Y-126768095D01*
X219101904Y-126910952D01*
X218530476Y-127482380D01*
X219149523Y-127482380D01*
X220101904Y-127482380D02*
X219530476Y-127482380D01*
X219816190Y-127482380D02*
X219816190Y-126482380D01*
X219720952Y-126625238D01*
X219625714Y-126720476D01*
X219530476Y-126768095D01*
X124752380Y-66642857D02*
X124276190Y-66976190D01*
X124752380Y-67214285D02*
X123752380Y-67214285D01*
X123752380Y-66833333D01*
X123800000Y-66738095D01*
X123847619Y-66690476D01*
X123942857Y-66642857D01*
X124085714Y-66642857D01*
X124180952Y-66690476D01*
X124228571Y-66738095D01*
X124276190Y-66833333D01*
X124276190Y-67214285D01*
X123847619Y-66261904D02*
X123800000Y-66214285D01*
X123752380Y-66119047D01*
X123752380Y-65880952D01*
X123800000Y-65785714D01*
X123847619Y-65738095D01*
X123942857Y-65690476D01*
X124038095Y-65690476D01*
X124180952Y-65738095D01*
X124752380Y-66309523D01*
X124752380Y-65690476D01*
X123752380Y-65071428D02*
X123752380Y-64976190D01*
X123800000Y-64880952D01*
X123847619Y-64833333D01*
X123942857Y-64785714D01*
X124133333Y-64738095D01*
X124371428Y-64738095D01*
X124561904Y-64785714D01*
X124657142Y-64833333D01*
X124704761Y-64880952D01*
X124752380Y-64976190D01*
X124752380Y-65071428D01*
X124704761Y-65166666D01*
X124657142Y-65214285D01*
X124561904Y-65261904D01*
X124371428Y-65309523D01*
X124133333Y-65309523D01*
X123942857Y-65261904D01*
X123847619Y-65214285D01*
X123800000Y-65166666D01*
X123752380Y-65071428D01*
X128007142Y-71892380D02*
X127673809Y-71416190D01*
X127435714Y-71892380D02*
X127435714Y-70892380D01*
X127816666Y-70892380D01*
X127911904Y-70940000D01*
X127959523Y-70987619D01*
X128007142Y-71082857D01*
X128007142Y-71225714D01*
X127959523Y-71320952D01*
X127911904Y-71368571D01*
X127816666Y-71416190D01*
X127435714Y-71416190D01*
X128959523Y-71892380D02*
X128388095Y-71892380D01*
X128673809Y-71892380D02*
X128673809Y-70892380D01*
X128578571Y-71035238D01*
X128483333Y-71130476D01*
X128388095Y-71178095D01*
X129435714Y-71892380D02*
X129626190Y-71892380D01*
X129721428Y-71844761D01*
X129769047Y-71797142D01*
X129864285Y-71654285D01*
X129911904Y-71463809D01*
X129911904Y-71082857D01*
X129864285Y-70987619D01*
X129816666Y-70940000D01*
X129721428Y-70892380D01*
X129530952Y-70892380D01*
X129435714Y-70940000D01*
X129388095Y-70987619D01*
X129340476Y-71082857D01*
X129340476Y-71320952D01*
X129388095Y-71416190D01*
X129435714Y-71463809D01*
X129530952Y-71511428D01*
X129721428Y-71511428D01*
X129816666Y-71463809D01*
X129864285Y-71416190D01*
X129911904Y-71320952D01*
X124752380Y-52842857D02*
X124276190Y-53176190D01*
X124752380Y-53414285D02*
X123752380Y-53414285D01*
X123752380Y-53033333D01*
X123800000Y-52938095D01*
X123847619Y-52890476D01*
X123942857Y-52842857D01*
X124085714Y-52842857D01*
X124180952Y-52890476D01*
X124228571Y-52938095D01*
X124276190Y-53033333D01*
X124276190Y-53414285D01*
X124752380Y-51890476D02*
X124752380Y-52461904D01*
X124752380Y-52176190D02*
X123752380Y-52176190D01*
X123895238Y-52271428D01*
X123990476Y-52366666D01*
X124038095Y-52461904D01*
X124180952Y-51319047D02*
X124133333Y-51414285D01*
X124085714Y-51461904D01*
X123990476Y-51509523D01*
X123942857Y-51509523D01*
X123847619Y-51461904D01*
X123800000Y-51414285D01*
X123752380Y-51319047D01*
X123752380Y-51128571D01*
X123800000Y-51033333D01*
X123847619Y-50985714D01*
X123942857Y-50938095D01*
X123990476Y-50938095D01*
X124085714Y-50985714D01*
X124133333Y-51033333D01*
X124180952Y-51128571D01*
X124180952Y-51319047D01*
X124228571Y-51414285D01*
X124276190Y-51461904D01*
X124371428Y-51509523D01*
X124561904Y-51509523D01*
X124657142Y-51461904D01*
X124704761Y-51414285D01*
X124752380Y-51319047D01*
X124752380Y-51128571D01*
X124704761Y-51033333D01*
X124657142Y-50985714D01*
X124561904Y-50938095D01*
X124371428Y-50938095D01*
X124276190Y-50985714D01*
X124228571Y-51033333D01*
X124180952Y-51128571D01*
X128657142Y-58152380D02*
X128323809Y-57676190D01*
X128085714Y-58152380D02*
X128085714Y-57152380D01*
X128466666Y-57152380D01*
X128561904Y-57200000D01*
X128609523Y-57247619D01*
X128657142Y-57342857D01*
X128657142Y-57485714D01*
X128609523Y-57580952D01*
X128561904Y-57628571D01*
X128466666Y-57676190D01*
X128085714Y-57676190D01*
X129609523Y-58152380D02*
X129038095Y-58152380D01*
X129323809Y-58152380D02*
X129323809Y-57152380D01*
X129228571Y-57295238D01*
X129133333Y-57390476D01*
X129038095Y-57438095D01*
X129942857Y-57152380D02*
X130609523Y-57152380D01*
X130180952Y-58152380D01*
X124752380Y-100892857D02*
X124276190Y-101226190D01*
X124752380Y-101464285D02*
X123752380Y-101464285D01*
X123752380Y-101083333D01*
X123800000Y-100988095D01*
X123847619Y-100940476D01*
X123942857Y-100892857D01*
X124085714Y-100892857D01*
X124180952Y-100940476D01*
X124228571Y-100988095D01*
X124276190Y-101083333D01*
X124276190Y-101464285D01*
X124752380Y-99940476D02*
X124752380Y-100511904D01*
X124752380Y-100226190D02*
X123752380Y-100226190D01*
X123895238Y-100321428D01*
X123990476Y-100416666D01*
X124038095Y-100511904D01*
X123752380Y-99083333D02*
X123752380Y-99273809D01*
X123800000Y-99369047D01*
X123847619Y-99416666D01*
X123990476Y-99511904D01*
X124180952Y-99559523D01*
X124561904Y-99559523D01*
X124657142Y-99511904D01*
X124704761Y-99464285D01*
X124752380Y-99369047D01*
X124752380Y-99178571D01*
X124704761Y-99083333D01*
X124657142Y-99035714D01*
X124561904Y-98988095D01*
X124323809Y-98988095D01*
X124228571Y-99035714D01*
X124180952Y-99083333D01*
X124133333Y-99178571D01*
X124133333Y-99369047D01*
X124180952Y-99464285D01*
X124228571Y-99511904D01*
X124323809Y-99559523D01*
X128657142Y-106202380D02*
X128323809Y-105726190D01*
X128085714Y-106202380D02*
X128085714Y-105202380D01*
X128466666Y-105202380D01*
X128561904Y-105250000D01*
X128609523Y-105297619D01*
X128657142Y-105392857D01*
X128657142Y-105535714D01*
X128609523Y-105630952D01*
X128561904Y-105678571D01*
X128466666Y-105726190D01*
X128085714Y-105726190D01*
X129609523Y-106202380D02*
X129038095Y-106202380D01*
X129323809Y-106202380D02*
X129323809Y-105202380D01*
X129228571Y-105345238D01*
X129133333Y-105440476D01*
X129038095Y-105488095D01*
X130514285Y-105202380D02*
X130038095Y-105202380D01*
X129990476Y-105678571D01*
X130038095Y-105630952D01*
X130133333Y-105583333D01*
X130371428Y-105583333D01*
X130466666Y-105630952D01*
X130514285Y-105678571D01*
X130561904Y-105773809D01*
X130561904Y-106011904D01*
X130514285Y-106107142D01*
X130466666Y-106154761D01*
X130371428Y-106202380D01*
X130133333Y-106202380D01*
X130038095Y-106154761D01*
X129990476Y-106107142D01*
X135182380Y-101892857D02*
X134706190Y-102226190D01*
X135182380Y-102464285D02*
X134182380Y-102464285D01*
X134182380Y-102083333D01*
X134230000Y-101988095D01*
X134277619Y-101940476D01*
X134372857Y-101892857D01*
X134515714Y-101892857D01*
X134610952Y-101940476D01*
X134658571Y-101988095D01*
X134706190Y-102083333D01*
X134706190Y-102464285D01*
X135182380Y-100940476D02*
X135182380Y-101511904D01*
X135182380Y-101226190D02*
X134182380Y-101226190D01*
X134325238Y-101321428D01*
X134420476Y-101416666D01*
X134468095Y-101511904D01*
X134515714Y-100083333D02*
X135182380Y-100083333D01*
X134134761Y-100321428D02*
X134849047Y-100559523D01*
X134849047Y-99940476D01*
X124752380Y-59742857D02*
X124276190Y-60076190D01*
X124752380Y-60314285D02*
X123752380Y-60314285D01*
X123752380Y-59933333D01*
X123800000Y-59838095D01*
X123847619Y-59790476D01*
X123942857Y-59742857D01*
X124085714Y-59742857D01*
X124180952Y-59790476D01*
X124228571Y-59838095D01*
X124276190Y-59933333D01*
X124276190Y-60314285D01*
X124752380Y-58790476D02*
X124752380Y-59361904D01*
X124752380Y-59076190D02*
X123752380Y-59076190D01*
X123895238Y-59171428D01*
X123990476Y-59266666D01*
X124038095Y-59361904D01*
X123752380Y-58457142D02*
X123752380Y-57838095D01*
X124133333Y-58171428D01*
X124133333Y-58028571D01*
X124180952Y-57933333D01*
X124228571Y-57885714D01*
X124323809Y-57838095D01*
X124561904Y-57838095D01*
X124657142Y-57885714D01*
X124704761Y-57933333D01*
X124752380Y-58028571D01*
X124752380Y-58314285D01*
X124704761Y-58409523D01*
X124657142Y-58457142D01*
X127957142Y-64992380D02*
X127623809Y-64516190D01*
X127385714Y-64992380D02*
X127385714Y-63992380D01*
X127766666Y-63992380D01*
X127861904Y-64040000D01*
X127909523Y-64087619D01*
X127957142Y-64182857D01*
X127957142Y-64325714D01*
X127909523Y-64420952D01*
X127861904Y-64468571D01*
X127766666Y-64516190D01*
X127385714Y-64516190D01*
X128909523Y-64992380D02*
X128338095Y-64992380D01*
X128623809Y-64992380D02*
X128623809Y-63992380D01*
X128528571Y-64135238D01*
X128433333Y-64230476D01*
X128338095Y-64278095D01*
X129290476Y-64087619D02*
X129338095Y-64040000D01*
X129433333Y-63992380D01*
X129671428Y-63992380D01*
X129766666Y-64040000D01*
X129814285Y-64087619D01*
X129861904Y-64182857D01*
X129861904Y-64278095D01*
X129814285Y-64420952D01*
X129242857Y-64992380D01*
X129861904Y-64992380D01*
X124752380Y-73492857D02*
X124276190Y-73826190D01*
X124752380Y-74064285D02*
X123752380Y-74064285D01*
X123752380Y-73683333D01*
X123800000Y-73588095D01*
X123847619Y-73540476D01*
X123942857Y-73492857D01*
X124085714Y-73492857D01*
X124180952Y-73540476D01*
X124228571Y-73588095D01*
X124276190Y-73683333D01*
X124276190Y-74064285D01*
X124752380Y-72540476D02*
X124752380Y-73111904D01*
X124752380Y-72826190D02*
X123752380Y-72826190D01*
X123895238Y-72921428D01*
X123990476Y-73016666D01*
X124038095Y-73111904D01*
X124752380Y-71588095D02*
X124752380Y-72159523D01*
X124752380Y-71873809D02*
X123752380Y-71873809D01*
X123895238Y-71969047D01*
X123990476Y-72064285D01*
X124038095Y-72159523D01*
X128657142Y-78802380D02*
X128323809Y-78326190D01*
X128085714Y-78802380D02*
X128085714Y-77802380D01*
X128466666Y-77802380D01*
X128561904Y-77850000D01*
X128609523Y-77897619D01*
X128657142Y-77992857D01*
X128657142Y-78135714D01*
X128609523Y-78230952D01*
X128561904Y-78278571D01*
X128466666Y-78326190D01*
X128085714Y-78326190D01*
X129609523Y-78802380D02*
X129038095Y-78802380D01*
X129323809Y-78802380D02*
X129323809Y-77802380D01*
X129228571Y-77945238D01*
X129133333Y-78040476D01*
X129038095Y-78088095D01*
X130228571Y-77802380D02*
X130323809Y-77802380D01*
X130419047Y-77850000D01*
X130466666Y-77897619D01*
X130514285Y-77992857D01*
X130561904Y-78183333D01*
X130561904Y-78421428D01*
X130514285Y-78611904D01*
X130466666Y-78707142D01*
X130419047Y-78754761D01*
X130323809Y-78802380D01*
X130228571Y-78802380D01*
X130133333Y-78754761D01*
X130085714Y-78707142D01*
X130038095Y-78611904D01*
X129990476Y-78421428D01*
X129990476Y-78183333D01*
X130038095Y-77992857D01*
X130085714Y-77897619D01*
X130133333Y-77850000D01*
X130228571Y-77802380D01*
X124652380Y-108516666D02*
X124176190Y-108850000D01*
X124652380Y-109088095D02*
X123652380Y-109088095D01*
X123652380Y-108707142D01*
X123700000Y-108611904D01*
X123747619Y-108564285D01*
X123842857Y-108516666D01*
X123985714Y-108516666D01*
X124080952Y-108564285D01*
X124128571Y-108611904D01*
X124176190Y-108707142D01*
X124176190Y-109088095D01*
X124652380Y-108040476D02*
X124652380Y-107850000D01*
X124604761Y-107754761D01*
X124557142Y-107707142D01*
X124414285Y-107611904D01*
X124223809Y-107564285D01*
X123842857Y-107564285D01*
X123747619Y-107611904D01*
X123700000Y-107659523D01*
X123652380Y-107754761D01*
X123652380Y-107945238D01*
X123700000Y-108040476D01*
X123747619Y-108088095D01*
X123842857Y-108135714D01*
X124080952Y-108135714D01*
X124176190Y-108088095D01*
X124223809Y-108040476D01*
X124271428Y-107945238D01*
X124271428Y-107754761D01*
X124223809Y-107659523D01*
X124176190Y-107611904D01*
X124080952Y-107564285D01*
X135182380Y-74016666D02*
X134706190Y-74350000D01*
X135182380Y-74588095D02*
X134182380Y-74588095D01*
X134182380Y-74207142D01*
X134230000Y-74111904D01*
X134277619Y-74064285D01*
X134372857Y-74016666D01*
X134515714Y-74016666D01*
X134610952Y-74064285D01*
X134658571Y-74111904D01*
X134706190Y-74207142D01*
X134706190Y-74588095D01*
X134610952Y-73445238D02*
X134563333Y-73540476D01*
X134515714Y-73588095D01*
X134420476Y-73635714D01*
X134372857Y-73635714D01*
X134277619Y-73588095D01*
X134230000Y-73540476D01*
X134182380Y-73445238D01*
X134182380Y-73254761D01*
X134230000Y-73159523D01*
X134277619Y-73111904D01*
X134372857Y-73064285D01*
X134420476Y-73064285D01*
X134515714Y-73111904D01*
X134563333Y-73159523D01*
X134610952Y-73254761D01*
X134610952Y-73445238D01*
X134658571Y-73540476D01*
X134706190Y-73588095D01*
X134801428Y-73635714D01*
X134991904Y-73635714D01*
X135087142Y-73588095D01*
X135134761Y-73540476D01*
X135182380Y-73445238D01*
X135182380Y-73254761D01*
X135134761Y-73159523D01*
X135087142Y-73111904D01*
X134991904Y-73064285D01*
X134801428Y-73064285D01*
X134706190Y-73111904D01*
X134658571Y-73159523D01*
X134610952Y-73254761D01*
X129083333Y-113852380D02*
X128750000Y-113376190D01*
X128511904Y-113852380D02*
X128511904Y-112852380D01*
X128892857Y-112852380D01*
X128988095Y-112900000D01*
X129035714Y-112947619D01*
X129083333Y-113042857D01*
X129083333Y-113185714D01*
X129035714Y-113280952D01*
X128988095Y-113328571D01*
X128892857Y-113376190D01*
X128511904Y-113376190D01*
X129416666Y-112852380D02*
X130083333Y-112852380D01*
X129654761Y-113852380D01*
X128183333Y-120177380D02*
X127850000Y-119701190D01*
X127611904Y-120177380D02*
X127611904Y-119177380D01*
X127992857Y-119177380D01*
X128088095Y-119225000D01*
X128135714Y-119272619D01*
X128183333Y-119367857D01*
X128183333Y-119510714D01*
X128135714Y-119605952D01*
X128088095Y-119653571D01*
X127992857Y-119701190D01*
X127611904Y-119701190D01*
X128564285Y-119272619D02*
X128611904Y-119225000D01*
X128707142Y-119177380D01*
X128945238Y-119177380D01*
X129040476Y-119225000D01*
X129088095Y-119272619D01*
X129135714Y-119367857D01*
X129135714Y-119463095D01*
X129088095Y-119605952D01*
X128516666Y-120177380D01*
X129135714Y-120177380D01*
X128183333Y-118177380D02*
X127850000Y-117701190D01*
X127611904Y-118177380D02*
X127611904Y-117177380D01*
X127992857Y-117177380D01*
X128088095Y-117225000D01*
X128135714Y-117272619D01*
X128183333Y-117367857D01*
X128183333Y-117510714D01*
X128135714Y-117605952D01*
X128088095Y-117653571D01*
X127992857Y-117701190D01*
X127611904Y-117701190D01*
X129135714Y-118177380D02*
X128564285Y-118177380D01*
X128850000Y-118177380D02*
X128850000Y-117177380D01*
X128754761Y-117320238D01*
X128659523Y-117415476D01*
X128564285Y-117463095D01*
X130133333Y-124722380D02*
X129657142Y-124722380D01*
X129657142Y-123722380D01*
X130990476Y-124722380D02*
X130419047Y-124722380D01*
X130704761Y-124722380D02*
X130704761Y-123722380D01*
X130609523Y-123865238D01*
X130514285Y-123960476D01*
X130419047Y-124008095D01*
X236207142Y-121107142D02*
X236159523Y-121154761D01*
X236016666Y-121202380D01*
X235921428Y-121202380D01*
X235778571Y-121154761D01*
X235683333Y-121059523D01*
X235635714Y-120964285D01*
X235588095Y-120773809D01*
X235588095Y-120630952D01*
X235635714Y-120440476D01*
X235683333Y-120345238D01*
X235778571Y-120250000D01*
X235921428Y-120202380D01*
X236016666Y-120202380D01*
X236159523Y-120250000D01*
X236207142Y-120297619D01*
X236540476Y-120202380D02*
X237159523Y-120202380D01*
X236826190Y-120583333D01*
X236969047Y-120583333D01*
X237064285Y-120630952D01*
X237111904Y-120678571D01*
X237159523Y-120773809D01*
X237159523Y-121011904D01*
X237111904Y-121107142D01*
X237064285Y-121154761D01*
X236969047Y-121202380D01*
X236683333Y-121202380D01*
X236588095Y-121154761D01*
X236540476Y-121107142D01*
X237540476Y-120297619D02*
X237588095Y-120250000D01*
X237683333Y-120202380D01*
X237921428Y-120202380D01*
X238016666Y-120250000D01*
X238064285Y-120297619D01*
X238111904Y-120392857D01*
X238111904Y-120488095D01*
X238064285Y-120630952D01*
X237492857Y-121202380D01*
X238111904Y-121202380D01*
X229457142Y-121757142D02*
X229409523Y-121804761D01*
X229266666Y-121852380D01*
X229171428Y-121852380D01*
X229028571Y-121804761D01*
X228933333Y-121709523D01*
X228885714Y-121614285D01*
X228838095Y-121423809D01*
X228838095Y-121280952D01*
X228885714Y-121090476D01*
X228933333Y-120995238D01*
X229028571Y-120900000D01*
X229171428Y-120852380D01*
X229266666Y-120852380D01*
X229409523Y-120900000D01*
X229457142Y-120947619D01*
X229790476Y-120852380D02*
X230409523Y-120852380D01*
X230076190Y-121233333D01*
X230219047Y-121233333D01*
X230314285Y-121280952D01*
X230361904Y-121328571D01*
X230409523Y-121423809D01*
X230409523Y-121661904D01*
X230361904Y-121757142D01*
X230314285Y-121804761D01*
X230219047Y-121852380D01*
X229933333Y-121852380D01*
X229838095Y-121804761D01*
X229790476Y-121757142D01*
X231361904Y-121852380D02*
X230790476Y-121852380D01*
X231076190Y-121852380D02*
X231076190Y-120852380D01*
X230980952Y-120995238D01*
X230885714Y-121090476D01*
X230790476Y-121138095D01*
X218832142Y-133732142D02*
X218784523Y-133779761D01*
X218641666Y-133827380D01*
X218546428Y-133827380D01*
X218403571Y-133779761D01*
X218308333Y-133684523D01*
X218260714Y-133589285D01*
X218213095Y-133398809D01*
X218213095Y-133255952D01*
X218260714Y-133065476D01*
X218308333Y-132970238D01*
X218403571Y-132875000D01*
X218546428Y-132827380D01*
X218641666Y-132827380D01*
X218784523Y-132875000D01*
X218832142Y-132922619D01*
X219165476Y-132827380D02*
X219784523Y-132827380D01*
X219451190Y-133208333D01*
X219594047Y-133208333D01*
X219689285Y-133255952D01*
X219736904Y-133303571D01*
X219784523Y-133398809D01*
X219784523Y-133636904D01*
X219736904Y-133732142D01*
X219689285Y-133779761D01*
X219594047Y-133827380D01*
X219308333Y-133827380D01*
X219213095Y-133779761D01*
X219165476Y-133732142D01*
X220403571Y-132827380D02*
X220498809Y-132827380D01*
X220594047Y-132875000D01*
X220641666Y-132922619D01*
X220689285Y-133017857D01*
X220736904Y-133208333D01*
X220736904Y-133446428D01*
X220689285Y-133636904D01*
X220641666Y-133732142D01*
X220594047Y-133779761D01*
X220498809Y-133827380D01*
X220403571Y-133827380D01*
X220308333Y-133779761D01*
X220260714Y-133732142D01*
X220213095Y-133636904D01*
X220165476Y-133446428D01*
X220165476Y-133208333D01*
X220213095Y-133017857D01*
X220260714Y-132922619D01*
X220308333Y-132875000D01*
X220403571Y-132827380D01*
X230107142Y-134857142D02*
X230059523Y-134904761D01*
X229916666Y-134952380D01*
X229821428Y-134952380D01*
X229678571Y-134904761D01*
X229583333Y-134809523D01*
X229535714Y-134714285D01*
X229488095Y-134523809D01*
X229488095Y-134380952D01*
X229535714Y-134190476D01*
X229583333Y-134095238D01*
X229678571Y-134000000D01*
X229821428Y-133952380D01*
X229916666Y-133952380D01*
X230059523Y-134000000D01*
X230107142Y-134047619D01*
X230488095Y-134047619D02*
X230535714Y-134000000D01*
X230630952Y-133952380D01*
X230869047Y-133952380D01*
X230964285Y-134000000D01*
X231011904Y-134047619D01*
X231059523Y-134142857D01*
X231059523Y-134238095D01*
X231011904Y-134380952D01*
X230440476Y-134952380D01*
X231059523Y-134952380D01*
X231535714Y-134952380D02*
X231726190Y-134952380D01*
X231821428Y-134904761D01*
X231869047Y-134857142D01*
X231964285Y-134714285D01*
X232011904Y-134523809D01*
X232011904Y-134142857D01*
X231964285Y-134047619D01*
X231916666Y-134000000D01*
X231821428Y-133952380D01*
X231630952Y-133952380D01*
X231535714Y-134000000D01*
X231488095Y-134047619D01*
X231440476Y-134142857D01*
X231440476Y-134380952D01*
X231488095Y-134476190D01*
X231535714Y-134523809D01*
X231630952Y-134571428D01*
X231821428Y-134571428D01*
X231916666Y-134523809D01*
X231964285Y-134476190D01*
X232011904Y-134380952D01*
X126657142Y-66642857D02*
X126704761Y-66690476D01*
X126752380Y-66833333D01*
X126752380Y-66928571D01*
X126704761Y-67071428D01*
X126609523Y-67166666D01*
X126514285Y-67214285D01*
X126323809Y-67261904D01*
X126180952Y-67261904D01*
X125990476Y-67214285D01*
X125895238Y-67166666D01*
X125800000Y-67071428D01*
X125752380Y-66928571D01*
X125752380Y-66833333D01*
X125800000Y-66690476D01*
X125847619Y-66642857D01*
X125847619Y-66261904D02*
X125800000Y-66214285D01*
X125752380Y-66119047D01*
X125752380Y-65880952D01*
X125800000Y-65785714D01*
X125847619Y-65738095D01*
X125942857Y-65690476D01*
X126038095Y-65690476D01*
X126180952Y-65738095D01*
X126752380Y-66309523D01*
X126752380Y-65690476D01*
X126180952Y-65119047D02*
X126133333Y-65214285D01*
X126085714Y-65261904D01*
X125990476Y-65309523D01*
X125942857Y-65309523D01*
X125847619Y-65261904D01*
X125800000Y-65214285D01*
X125752380Y-65119047D01*
X125752380Y-64928571D01*
X125800000Y-64833333D01*
X125847619Y-64785714D01*
X125942857Y-64738095D01*
X125990476Y-64738095D01*
X126085714Y-64785714D01*
X126133333Y-64833333D01*
X126180952Y-64928571D01*
X126180952Y-65119047D01*
X126228571Y-65214285D01*
X126276190Y-65261904D01*
X126371428Y-65309523D01*
X126561904Y-65309523D01*
X126657142Y-65261904D01*
X126704761Y-65214285D01*
X126752380Y-65119047D01*
X126752380Y-64928571D01*
X126704761Y-64833333D01*
X126657142Y-64785714D01*
X126561904Y-64738095D01*
X126371428Y-64738095D01*
X126276190Y-64785714D01*
X126228571Y-64833333D01*
X126180952Y-64928571D01*
X126657142Y-52842857D02*
X126704761Y-52890476D01*
X126752380Y-53033333D01*
X126752380Y-53128571D01*
X126704761Y-53271428D01*
X126609523Y-53366666D01*
X126514285Y-53414285D01*
X126323809Y-53461904D01*
X126180952Y-53461904D01*
X125990476Y-53414285D01*
X125895238Y-53366666D01*
X125800000Y-53271428D01*
X125752380Y-53128571D01*
X125752380Y-53033333D01*
X125800000Y-52890476D01*
X125847619Y-52842857D01*
X125847619Y-52461904D02*
X125800000Y-52414285D01*
X125752380Y-52319047D01*
X125752380Y-52080952D01*
X125800000Y-51985714D01*
X125847619Y-51938095D01*
X125942857Y-51890476D01*
X126038095Y-51890476D01*
X126180952Y-51938095D01*
X126752380Y-52509523D01*
X126752380Y-51890476D01*
X125752380Y-51557142D02*
X125752380Y-50890476D01*
X126752380Y-51319047D01*
X126657142Y-100892857D02*
X126704761Y-100940476D01*
X126752380Y-101083333D01*
X126752380Y-101178571D01*
X126704761Y-101321428D01*
X126609523Y-101416666D01*
X126514285Y-101464285D01*
X126323809Y-101511904D01*
X126180952Y-101511904D01*
X125990476Y-101464285D01*
X125895238Y-101416666D01*
X125800000Y-101321428D01*
X125752380Y-101178571D01*
X125752380Y-101083333D01*
X125800000Y-100940476D01*
X125847619Y-100892857D01*
X125847619Y-100511904D02*
X125800000Y-100464285D01*
X125752380Y-100369047D01*
X125752380Y-100130952D01*
X125800000Y-100035714D01*
X125847619Y-99988095D01*
X125942857Y-99940476D01*
X126038095Y-99940476D01*
X126180952Y-99988095D01*
X126752380Y-100559523D01*
X126752380Y-99940476D01*
X125752380Y-99083333D02*
X125752380Y-99273809D01*
X125800000Y-99369047D01*
X125847619Y-99416666D01*
X125990476Y-99511904D01*
X126180952Y-99559523D01*
X126561904Y-99559523D01*
X126657142Y-99511904D01*
X126704761Y-99464285D01*
X126752380Y-99369047D01*
X126752380Y-99178571D01*
X126704761Y-99083333D01*
X126657142Y-99035714D01*
X126561904Y-98988095D01*
X126323809Y-98988095D01*
X126228571Y-99035714D01*
X126180952Y-99083333D01*
X126133333Y-99178571D01*
X126133333Y-99369047D01*
X126180952Y-99464285D01*
X126228571Y-99511904D01*
X126323809Y-99559523D01*
X126657142Y-59742857D02*
X126704761Y-59790476D01*
X126752380Y-59933333D01*
X126752380Y-60028571D01*
X126704761Y-60171428D01*
X126609523Y-60266666D01*
X126514285Y-60314285D01*
X126323809Y-60361904D01*
X126180952Y-60361904D01*
X125990476Y-60314285D01*
X125895238Y-60266666D01*
X125800000Y-60171428D01*
X125752380Y-60028571D01*
X125752380Y-59933333D01*
X125800000Y-59790476D01*
X125847619Y-59742857D01*
X125847619Y-59361904D02*
X125800000Y-59314285D01*
X125752380Y-59219047D01*
X125752380Y-58980952D01*
X125800000Y-58885714D01*
X125847619Y-58838095D01*
X125942857Y-58790476D01*
X126038095Y-58790476D01*
X126180952Y-58838095D01*
X126752380Y-59409523D01*
X126752380Y-58790476D01*
X125752380Y-57885714D02*
X125752380Y-58361904D01*
X126228571Y-58409523D01*
X126180952Y-58361904D01*
X126133333Y-58266666D01*
X126133333Y-58028571D01*
X126180952Y-57933333D01*
X126228571Y-57885714D01*
X126323809Y-57838095D01*
X126561904Y-57838095D01*
X126657142Y-57885714D01*
X126704761Y-57933333D01*
X126752380Y-58028571D01*
X126752380Y-58266666D01*
X126704761Y-58361904D01*
X126657142Y-58409523D01*
X126657142Y-73492857D02*
X126704761Y-73540476D01*
X126752380Y-73683333D01*
X126752380Y-73778571D01*
X126704761Y-73921428D01*
X126609523Y-74016666D01*
X126514285Y-74064285D01*
X126323809Y-74111904D01*
X126180952Y-74111904D01*
X125990476Y-74064285D01*
X125895238Y-74016666D01*
X125800000Y-73921428D01*
X125752380Y-73778571D01*
X125752380Y-73683333D01*
X125800000Y-73540476D01*
X125847619Y-73492857D01*
X125847619Y-73111904D02*
X125800000Y-73064285D01*
X125752380Y-72969047D01*
X125752380Y-72730952D01*
X125800000Y-72635714D01*
X125847619Y-72588095D01*
X125942857Y-72540476D01*
X126038095Y-72540476D01*
X126180952Y-72588095D01*
X126752380Y-73159523D01*
X126752380Y-72540476D01*
X126085714Y-71683333D02*
X126752380Y-71683333D01*
X125704761Y-71921428D02*
X126419047Y-72159523D01*
X126419047Y-71540476D01*
X126557142Y-108517857D02*
X126604761Y-108565476D01*
X126652380Y-108708333D01*
X126652380Y-108803571D01*
X126604761Y-108946428D01*
X126509523Y-109041666D01*
X126414285Y-109089285D01*
X126223809Y-109136904D01*
X126080952Y-109136904D01*
X125890476Y-109089285D01*
X125795238Y-109041666D01*
X125700000Y-108946428D01*
X125652380Y-108803571D01*
X125652380Y-108708333D01*
X125700000Y-108565476D01*
X125747619Y-108517857D01*
X125747619Y-108136904D02*
X125700000Y-108089285D01*
X125652380Y-107994047D01*
X125652380Y-107755952D01*
X125700000Y-107660714D01*
X125747619Y-107613095D01*
X125842857Y-107565476D01*
X125938095Y-107565476D01*
X126080952Y-107613095D01*
X126652380Y-108184523D01*
X126652380Y-107565476D01*
X125652380Y-107232142D02*
X125652380Y-106613095D01*
X126033333Y-106946428D01*
X126033333Y-106803571D01*
X126080952Y-106708333D01*
X126128571Y-106660714D01*
X126223809Y-106613095D01*
X126461904Y-106613095D01*
X126557142Y-106660714D01*
X126604761Y-106708333D01*
X126652380Y-106803571D01*
X126652380Y-107089285D01*
X126604761Y-107184523D01*
X126557142Y-107232142D01*
M02*
